<?xml version="1.0" encoding="UTF-8"?>
<svg width="31px" height="45px" viewBox="0 0 31 45" version="1.1" xmlns="http://www.w3.org/2000/svg" xmlns:xlink="http://www.w3.org/1999/xlink">
    <!-- Generator: Sketch 50.2 (55047) - http://www.bohemiancoding.com/sketch -->
    <title>robot-color-3</title>
    <desc>Created with Sketch.</desc>
    <defs></defs>
    <g id="robot-color-3" stroke="none" stroke-width="1" fill="none" fill-rule="evenodd">
        <path d="M12.5,12 C12.7762,12 13,11.708 13,11.3478261 L13,10.6521739 C13,10.292 12.7762,10 12.5,10 C12.2238,10 12,10.292 12,10.6521739 L12,11.3478261 C12,11.708 12.2238,12 12.5,12 Z" id="Shape" fill="#FFE073" fill-rule="nonzero"></path>
        <path d="M17.5,12 C17.7762,12 18,11.708 18,11.3478261 L18,10.6521739 C18,10.292 17.7762,10 17.5,10 C17.2238,10 17,10.292 17,10.6521739 L17,11.3478261 C17,11.708 17.2238,12 17.5,12 Z" id="Shape" fill="#FFE073" fill-rule="nonzero"></path>
        <path d="M30.5970013,30.4009503 L29.4450488,29.824892 L29.4450488,23.1090065 C30.3478359,22.8040173 30.9999028,21.9495032 30.9999028,20.9449244 C30.9999028,19.6855076 29.9754484,18.6609071 28.7162109,18.6609071 L25.5579136,18.6609071 L25.5579136,17.8347732 C25.5579136,17.432203 25.2316858,17.1058315 24.8290758,17.1058315 L23.2256325,17.1058315 L23.2256325,13.1695464 C23.2256325,10.637689 22.0016708,8.38642549 20.1145639,6.97636069 C20.1147583,6.97033477 20.1152118,6.12758099 20.1159244,4.44809935 C21.0187115,4.14311015 21.6707785,3.28859611 21.6707785,2.28401728 C21.6707785,1.02460043 20.646324,0 19.3870866,0 C18.1278491,0 17.1033947,1.02460043 17.1033947,2.28401728 C17.1033947,3.28859611 17.7554616,4.14311015 18.6582487,4.44809935 L18.6582487,6.12068035 C17.6932674,5.68642549 16.6248883,5.44276458 15.4999514,5.44276458 C14.3750145,5.44276458 13.3066354,5.68642549 12.3416541,6.12068035 L12.3416541,4.44809935 C13.2444412,4.14311015 13.8965082,3.28859611 13.8965082,2.28401728 C13.8965082,1.02460043 12.8720537,0 11.6128163,0 C10.3535788,0 9.32912436,1.02460043 9.32912436,2.28401728 C9.32912436,3.28859611 9.98119128,4.14311015 10.8839784,4.44809935 L10.8839784,6.94924406 C8.99823198,8.38642549 7.7742703,10.637689 7.7742703,13.1695464 L7.7742703,17.1058315 L6.17082705,17.1058315 C5.76821703,17.1058315 5.44198921,17.432203 5.44198921,17.8347732 L5.44198921,18.6609071 L2.2836919,18.6609071 C1.02445447,18.6609071 0,19.6855076 0,20.9449244 C0,21.9495032 0.652066921,22.8040173 1.55485406,23.1090065 L1.55485406,29.824892 L0.402901558,30.4009503 C0.156068476,30.5243844 0,30.7767927 0,31.0529158 L0,33.3855292 C0,33.6616523 0.155971298,33.9140605 0.402901558,34.0374946 L1.95775562,34.8150324 C2.06241673,34.867419 2.17368598,34.8921058 2.28320601,34.8921058 C2.55054373,34.8921058 2.80796925,34.7443737 2.93566164,34.4890497 C3.11573318,34.1289525 2.96977125,33.6911015 2.60972536,33.5111015 L1.45767568,32.9350432 L1.45767568,31.5034989 L2.2836919,31.090432 L3.10970812,31.5034989 L3.10970812,32.6079914 C3.10970812,33.0105616 3.43593594,33.336933 3.83854596,33.336933 C4.24115598,33.336933 4.5673838,33.0105616 4.5673838,32.6079914 L4.5673838,31.0529158 C4.5673838,30.7767927 4.4114125,30.5243844 4.16448224,30.4009503 L3.01252974,29.824892 L3.01252974,23.2289417 L5.44198921,23.2289417 L5.44198921,26.387689 C5.44198921,28.9195464 6.66595089,31.1708099 8.55305783,32.5808747 C8.55286347,32.5869006 8.55240997,34.1510151 8.55169733,37.2732181 C8.55169733,38.277797 9.20376425,39.132311 10.1065514,39.4373002 L10.1065514,40.4319654 L8.50310814,40.4319654 C8.23032843,40.4319654 7.98048282,40.5841685 7.85541425,40.8265659 L6.45410202,43.5421166 L6.17082705,43.5421166 C5.76821703,43.5421166 5.44198921,43.8684881 5.44198921,44.2710583 C5.44198921,44.6736285 5.76821703,45 6.17082705,45 L13.1676703,45 C13.5702803,45 13.8965082,44.6736285 13.8965082,44.2710583 L13.8965082,41.1609071 C13.8965082,40.7583369 13.5702803,40.4319654 13.1676703,40.4319654 L11.5642271,40.4319654 L11.5642271,39.4373002 C12.4670142,39.132311 13.1190811,38.277797 13.1190811,37.2732181 L13.1190811,34.1132073 C13.1299003,34.1132721 14.7009508,34.1136933 17.8322325,34.1144708 C17.8431165,34.1144708 17.8593129,35.1673866 17.8808217,37.2732181 C17.8808217,38.277797 18.5328886,39.132311 19.4356758,39.4373002 L19.4356758,40.4319654 L17.8322325,40.4319654 C17.4296225,40.4319654 17.1033947,40.7583369 17.1033947,41.1609071 L17.1033947,44.2710583 C17.1033947,44.6736285 17.4296225,45 17.8322325,45 L24.8290758,45 C25.2316858,45 25.5579136,44.6736285 25.5579136,44.2710583 C25.5579136,43.8684881 25.2316858,43.5421166 24.8290758,43.5421166 L24.5458008,43.5421166 L23.1444886,40.8265659 C23.01942,40.5841685 22.7695744,40.4319654 22.4967947,40.4319654 L20.8933514,40.4319654 L20.8933514,39.4373002 C21.7961386,39.132311 22.4482055,38.277797 22.4482055,37.2732181 L22.4482055,32.6079914 C24.3339519,31.1708099 25.5579136,28.9195464 25.5579136,26.387689 L25.5579136,23.2289417 L27.9873731,23.2289417 L27.9873731,29.824892 L26.8354206,30.4009503 C26.5885875,30.5243844 26.432519,30.7767927 26.432519,31.0529158 L26.432519,32.6079914 C26.432519,33.0105616 26.7587468,33.336933 27.1613569,33.336933 C27.5639669,33.336933 27.8901947,33.0105616 27.8901947,32.6079914 L27.8901947,31.5034017 L28.7162109,31.0903348 L29.5422271,31.5034017 L29.5422271,32.934946 L28.3902746,33.5110043 C28.0303259,33.6910043 27.884364,34.1288553 28.0643384,34.4889525 C28.1919336,34.7443737 28.4494563,34.8921058 28.716794,34.8920086 C28.826314,34.8920086 28.9374861,34.8672246 29.0422444,34.8149352 L30.5970984,34.0373974 C30.8439315,33.9139633 31,33.6615551 31,33.385432 L31,31.0528186 C30.9999028,30.7767927 30.8439315,30.5243844 30.5970013,30.4009503 Z M19.3870866,1.45788337 C19.8425616,1.45788337 20.2131028,1.82847732 20.2131028,2.28401728 C20.2131028,2.73955724 19.8425616,3.11015119 19.3870866,3.11015119 C18.9316115,3.11015119 18.5610703,2.73955724 18.5610703,2.28401728 C18.5610703,1.82847732 18.9316115,1.45788337 19.3870866,1.45788337 Z M11.6128163,1.45788337 C12.0682913,1.45788337 12.4388325,1.82847732 12.4388325,2.28401728 C12.4388325,2.73955724 12.0682913,3.11015119 11.6128163,3.11015119 C11.1573412,3.11015119 10.7868,2.73955724 10.7868,2.28401728 C10.7868,1.82847732 11.1573412,1.45788337 11.6128163,1.45788337 Z M12.4388325,43.5421166 L8.09447306,43.5421166 L8.94711615,41.8898488 L12.4388325,41.8898488 L12.4388325,43.5421166 Z M22.9054298,43.5421166 L18.5610703,43.5421166 L18.5610703,41.8898488 L22.0527867,41.8898488 L22.9054298,43.5421166 Z M28.7162109,21.7710583 C28.2607359,21.7710583 27.8901947,21.4004644 27.8901947,20.9449244 C27.8901947,20.4893844 28.2607359,20.1187905 28.7162109,20.1187905 C29.171686,20.1187905 29.5422271,20.4893844 29.5422271,20.9449244 C29.5422271,21.4004644 29.171686,21.7710583 28.7162109,21.7710583 Z M15.4999514,6.90064795 C18.9561005,6.90064795 21.7679568,9.71290497 21.7679568,13.1695464 L21.7679568,13.9956803 L9.23194598,13.9956803 L9.23194598,13.1695464 C9.23194598,9.71290497 12.0438024,6.90064795 15.4999514,6.90064795 Z M9.23194598,15.4535637 L21.7679568,15.4535637 L21.7679568,17.1058315 L9.23194598,17.1058315 L9.23194598,15.4535637 Z M2.2836919,20.1187905 C2.73916696,20.1187905 3.10970812,20.4893844 3.10970812,20.9449244 C3.10970812,21.4004644 2.73916696,21.7710583 2.2836919,21.7710583 C1.82821684,21.7710583 1.45767568,21.4004644 1.45767568,20.9449244 C1.45767568,20.4893844 1.82821684,20.1187905 2.2836919,20.1187905 Z M4.41218993,21.7710583 C4.51199213,21.5146652 4.5673838,21.2362095 4.5673838,20.9449244 C4.5673838,20.6536393 4.51199213,20.3751836 4.41218993,20.1187905 L5.44198921,20.1187905 L5.44198921,21.7710583 L4.41218993,21.7710583 Z M10.8353892,38.0993521 C10.3799142,38.0993521 10.009373,37.7287581 10.009373,37.2732181 C10.009373,36.8176782 10.3799142,36.4470842 10.8353892,36.4470842 C11.2908643,36.4470842 11.6614055,36.8176782 11.6614055,37.2732181 C11.6614055,37.7287581 11.2908643,38.0993521 10.8353892,38.0993521 Z M11.6614055,35.1444168 C11.4050489,35.0446004 11.1266328,34.9892009 10.8353892,34.9892009 C10.5441456,34.9892009 10.2657296,35.0446004 10.009373,35.1444168 L10.009373,33.4365551 C10.5321927,33.6718575 11.0850405,33.8515659 11.6614055,33.9659611 L11.6614055,35.1444168 Z M6.89966489,26.387689 L6.89966489,18.5637149 L14.7711136,18.5637149 L14.7711136,20.9935205 L12.3902433,20.9935205 C10.702352,20.9935205 9.32912436,22.3669438 9.32912436,24.0550756 C9.32912436,25.7432073 10.702352,27.1166307 12.3902433,27.1166307 L14.7711136,27.1166307 L14.7711136,32.6565875 L13.1676703,32.6565875 C9.71152128,32.6565875 6.89966489,29.8443305 6.89966489,26.387689 Z M12.3902433,25.6587473 C11.5061144,25.6587473 10.7868,24.9393305 10.7868,24.0550756 C10.7868,23.1708207 11.5061144,22.4514039 12.3902433,22.4514039 L18.6096595,22.4514039 C19.4937884,22.4514039 20.2131028,23.1708207 20.2131028,24.0550756 C20.2131028,24.9393305 19.4937884,25.6587473 18.6096595,25.6587473 L12.3902433,25.6587473 Z M20.1645136,38.0993521 C19.7090385,38.0993521 19.3384974,37.7287581 19.3384974,37.2732181 C19.3384974,36.8176782 19.7090385,36.4470842 20.1645136,36.4470842 C20.6199887,36.4470842 20.9905298,36.8176782 20.9905298,37.2732181 C20.9905298,37.7287581 20.6199887,38.0993521 20.1645136,38.0993521 Z M20.9905298,35.1444168 C20.7341732,35.0446004 20.4557572,34.9892009 20.1645136,34.9892009 C19.87327,34.9892009 19.5948539,35.0446004 19.3384974,35.1444168 L19.3384974,33.9659611 C19.9148623,33.8515659 20.4677101,33.6718575 20.9905298,33.4365551 L20.9905298,35.1444168 Z M24.1002379,26.387689 C24.1002379,29.8443305 21.2883815,32.6565875 17.8322325,32.6565875 L16.2287893,32.6565875 L16.2287893,27.1166307 L18.6096595,27.1166307 C20.2975508,27.1166307 21.6707785,25.7432073 21.6707785,24.0550756 C21.6707785,22.3669438 20.2975508,20.9935205 18.6096595,20.9935205 L16.2287893,20.9935205 L16.2287893,18.5637149 L24.1002379,18.5637149 L24.1002379,26.387689 Z M25.5579136,20.1187905 L26.5877129,20.1187905 C26.4879107,20.3751836 26.432519,20.6536393 26.432519,20.9449244 C26.432519,21.2362095 26.4879107,21.5146652 26.5877129,21.7710583 L25.5579136,21.7710583 L25.5579136,20.1187905 Z" id="Shape" fill="#FFE073" fill-rule="nonzero"></path>
    </g>
</svg>