<?xml version="1.0" encoding="UTF-8"?>
<svg width="234px" height="121px" viewBox="0 0 234 121" version="1.1" xmlns="http://www.w3.org/2000/svg" xmlns:xlink="http://www.w3.org/1999/xlink">
    <!-- Generator: Sketch 50.2 (55047) - http://www.bohemiancoding.com/sketch -->
    <title>robot-group</title>
    <desc>Created with Sketch.</desc>
    <defs></defs>
    <g id="robot-group" stroke="none" stroke-width="1" fill="none" fill-rule="evenodd">
        <g id="robot-5" transform="translate(185.000000, 83.000000)" fill="#000000" fill-rule="nonzero">
            <path d="M48.2062635,1.70341558 L39.6868251,1.70341558 L39.6868251,0.798476051 C39.6868251,0.357504344 39.3315486,0 38.8930886,0 C38.4546285,0 38.0993521,0.357504344 38.0993521,0.798476051 L38.0993521,1.70341558 L29.5799136,1.70341558 C29.1414536,1.70341558 28.7861771,2.06091992 28.7861771,2.50189163 C28.7861771,2.94286334 29.1414536,3.30036768 29.5799136,3.30036768 L36.4060475,3.30036768 L36.4060475,5.11290832 C36.3884795,5.11173722 36.3710173,5.11024673 36.3531317,5.11024673 L12.6468683,5.11024673 C12.6289827,5.11024673 12.6115205,5.11173722 12.5939525,5.11290832 L12.5939525,3.30036768 L19.4200864,3.30036768 C19.8585464,3.30036768 20.2138229,2.94286334 20.2138229,2.50189163 C20.2138229,2.06091992 19.8585464,1.70341558 19.4200864,1.70341558 L10.9006479,1.70341558 L10.9006479,0.798476051 C10.9006479,0.357504344 10.5453715,0 10.1069114,0 C9.6684514,0 9.31317495,0.357504344 9.31317495,0.798476051 L9.31317495,1.70341558 L0.793736501,1.70341558 C0.355276458,1.70341558 0,2.06091992 0,2.50189163 C0,2.94286334 0.355276458,3.30036768 0.793736501,3.30036768 L7.61987041,3.30036768 L7.61987041,5.90872278 C7.61987041,7.00912924 8.33,7.9451561 9.31317495,8.27923848 L9.31317495,9.31555393 C9.31317495,9.75652564 9.6684514,10.11403 10.1069114,10.11403 C10.5453715,10.11403 10.9006479,9.75652564 10.9006479,9.31555393 L10.9006479,8.27923848 C11.6411512,8.02755883 12.2263996,7.43455728 12.4702354,6.68675785 C12.527067,6.69974639 12.5860151,6.7073053 12.6468683,6.7073053 L17.0900994,6.7073053 L17.3096998,7.70135475 C16.3783823,7.86030471 15.6216868,8.54124509 15.3490648,9.43383485 C13.435419,9.78431261 11.41954,11.5314847 11.0634168,13.7395371 C10.0506091,14.056053 9.31317495,15.0076235 9.31317495,16.1292162 C9.31317495,17.2296227 10.0233045,18.1656496 11.0064795,18.4997319 L11.0064795,20.5724693 C10.0233045,20.9065517 9.31317495,21.8425785 9.31317495,22.942985 L9.31317495,23.6062524 L8.55034125,25.1410299 C8.49520302,25.2518584 8.46652268,25.373972 8.46652268,25.4980019 L8.46652268,27.2014175 C8.46652268,27.6423892 8.82179914,27.9998935 9.26025918,27.9998935 C9.69871922,27.9998935 10.0539957,27.6423892 10.0539957,27.2014175 L10.0539957,25.6865487 L10.5974406,24.5930624 L13.0029914,24.5930624 L13.5464363,25.6865487 L13.5464363,27.2014175 C13.5464363,27.6423892 13.9017127,27.9998935 14.3401728,27.9998935 C14.7786328,27.9998935 15.1339093,27.6423892 15.1339093,27.2014175 L15.1339093,25.4980019 C15.1339093,25.373972 15.1052289,25.2517519 15.0500907,25.1409234 L14.287257,23.606146 L14.287257,22.9428785 C14.287257,21.8424721 13.5771274,20.9064452 12.5939525,20.5723628 L12.5939525,18.4996255 C13.5771274,18.1655431 14.287257,17.2295162 14.287257,16.1291098 C14.287257,15.0579808 13.614486,14.1422884 12.6718445,13.7861681 C12.9874341,12.4704925 14.219419,11.3621013 15.4011339,11.0525055 C15.7573629,11.9964107 16.6651857,12.6691533 17.7267819,12.6691533 L18.4226242,12.6691533 C18.5516328,13.057958 18.7678467,13.3989605 19.0473477,13.671507 L17.661378,15.0657526 C17.1916976,15.5382375 16.9329395,16.1665849 16.9329395,16.8348561 L16.9329395,17.8858636 L16.0333715,17.8858636 C15.5949114,17.8858636 15.239635,18.2433679 15.239635,18.6843396 C15.239635,19.1253113 15.5949114,19.4828157 16.0333715,19.4828157 L19.4199806,19.4828157 C19.8584406,19.4828157 20.2137171,19.1253113 20.2137171,18.6843396 C20.2137171,18.2433679 19.8584406,17.8858636 19.4199806,17.8858636 L18.5205184,17.8858636 L18.5205184,16.8347497 C18.5205184,16.5929711 18.6140734,16.3657781 18.7840389,16.1947977 L20.6029654,14.36501 C20.661067,14.3690556 20.7192743,14.3724625 20.7783283,14.3724625 L28.22146,14.3724625 C28.280514,14.3724625 28.3388272,14.3689492 28.3968229,14.36501 L30.2157495,16.1947977 C30.3857149,16.3656716 30.47927,16.5929711 30.47927,16.8347497 L30.47927,17.8858636 L29.5797019,17.8858636 C29.1412419,17.8858636 28.7859654,18.2433679 28.7859654,18.6843396 C28.7859654,19.1253113 29.1412419,19.4828157 29.5797019,19.4828157 L32.966311,19.4828157 C33.4047711,19.4828157 33.7600475,19.1253113 33.7600475,18.6843396 C33.7600475,18.2433679 33.4047711,17.8858636 32.966311,17.8858636 L32.0669546,17.8858636 L32.0669546,16.8347497 C32.0669546,16.1664785 31.8083024,15.538131 31.3385162,15.0656461 L29.9525464,13.6714005 C30.2320475,13.398854 30.4482613,13.057958 30.57727,12.6690469 L31.2731123,12.6690469 C32.3347084,12.6690469 33.2425313,11.9963042 33.5987603,11.052612 C34.7804752,11.3622077 36.01246,12.470599 36.3280497,13.7862746 C35.385514,14.1423949 34.712743,15.0580872 34.712743,16.1292162 C34.712743,17.2296227 35.4228726,18.1656496 36.4060475,18.4997319 L36.4060475,20.5724693 C35.4228726,20.9065517 34.712743,21.8425785 34.712743,22.942985 L34.712743,23.6062524 L33.9499093,25.1410299 C33.8947711,25.2519648 33.8660907,25.3740784 33.8660907,25.4981084 L33.8660907,27.2015239 C33.8660907,27.6424957 34.2213672,28 34.6598272,28 C35.0982873,28 35.4535637,27.6424957 35.4535637,27.2015239 L35.4535637,25.6866552 L35.9970086,24.5930624 L38.4025594,24.5930624 L38.9460043,25.6865487 L38.9460043,27.2014175 C38.9460043,27.6423892 39.3012808,27.9998935 39.7397408,27.9998935 C40.1782009,27.9998935 40.5334773,27.6423892 40.5334773,27.2014175 L40.5334773,25.4980019 C40.5334773,25.373972 40.504797,25.2517519 40.4496587,25.1409234 L39.6868251,23.606146 L39.6868251,22.9428785 C39.6868251,21.8424721 38.9766955,20.9064452 37.9935205,20.5723628 L37.9935205,18.4996255 C38.9766955,18.1655431 39.6868251,17.2295162 39.6868251,16.1291098 C39.6868251,15.0075171 38.9493909,14.0559466 37.936689,13.7393242 C37.5805659,11.5312717 35.5646868,9.78409968 33.651041,9.43362193 C33.378419,8.54103216 32.6216177,7.85998532 31.690406,7.70114182 L31.9100065,6.70709237 L36.3531317,6.70709237 C36.413879,6.70709237 36.472933,6.69953346 36.5297646,6.68654492 C36.7736004,7.43434436 37.3588488,8.02745237 38.0993521,8.27902556 L38.0993521,9.31534101 C38.0993521,9.75631271 38.4546285,10.1138171 38.8930886,10.1138171 C39.3315486,10.1138171 39.6868251,9.75631271 39.6868251,9.31534101 L39.6868251,8.27902556 C40.67,7.94494318 41.3801296,7.00891632 41.3801296,5.90850985 L41.3801296,3.30036768 L48.2062635,3.30036768 C48.6447235,3.30036768 49,2.94286334 49,2.50189163 C49,2.06091992 48.6447235,1.70341558 48.2062635,1.70341558 Z M10.1069114,6.81366231 C9.61087905,6.81366231 9.20734341,6.40771708 9.20734341,5.90872278 L9.20734341,3.30036768 L11.0064795,3.30036768 L11.0064795,5.90872278 C11.0064795,6.40771708 10.6029438,6.81366231 10.1069114,6.81366231 Z M12.699784,22.9961103 L10.9006479,22.9961103 L10.9006479,22.9428785 C10.9006479,22.4438842 11.3041836,22.037939 11.800216,22.037939 C12.2962484,22.037939 12.699784,22.4438842 12.699784,22.9428785 L12.699784,22.9961103 Z M11.800216,17.0341558 C11.3041836,17.0341558 10.9006479,16.6282105 10.9006479,16.1292162 C10.9006479,15.6302219 11.3041836,15.2242767 11.800216,15.2242767 C12.2962484,15.2242767 12.699784,15.6302219 12.699784,16.1292162 C12.699784,16.6282105 12.2962484,17.0341558 11.800216,17.0341558 Z M38.0993521,22.9961103 L36.300216,22.9961103 L36.300216,22.9428785 C36.300216,22.4438842 36.7037516,22.037939 37.199784,22.037939 C37.6958164,22.037939 38.0993521,22.4438842 38.0993521,22.9428785 L38.0993521,22.9961103 Z M37.199784,17.0341558 C36.7037516,17.0341558 36.300216,16.6282105 36.300216,16.1292162 C36.300216,15.6302219 36.7037516,15.2242767 37.199784,15.2242767 C37.6958164,15.2242767 38.0993521,15.6302219 38.0993521,16.1292162 C38.0993521,16.6282105 37.6958164,17.0341558 37.199784,17.0341558 Z M16.8272138,10.1672617 C16.8272138,9.69254109 17.1927559,9.30277832 17.6553456,9.26594195 L18.0543305,11.0722012 L17.7267819,11.0722012 C17.2307495,11.0722012 16.8272138,10.666256 16.8272138,10.1672617 Z M32.1727862,10.1672617 C32.1727862,10.666256 31.7692505,11.0722012 31.2732181,11.0722012 L30.9456695,11.0722012 L31.3446544,9.26594195 C31.8072441,9.30277832 32.1727862,9.69254109 32.1727862,10.1672617 Z M29.0997559,12.0669959 C29.0075767,12.4842263 28.6464795,12.7756168 28.2215659,12.7756168 L20.7784341,12.7756168 C20.3535205,12.7756168 19.9924233,12.4842263 19.9002441,12.0669959 L18.7162009,6.70719883 L30.2836933,6.70719883 L29.0997559,12.0669959 Z M39.7926566,5.90872278 C39.7926566,6.40771708 39.389121,6.81366231 38.8930886,6.81366231 C38.3970562,6.81366231 37.9935205,6.40771708 37.9935205,5.90872278 L37.9935205,3.30036768 L39.7926566,3.30036768 L39.7926566,5.90872278 Z" id="Shape"></path>
            <path d="M22,11 C22.5524,11 23,10.708 23,10.3478261 L23,9.65217391 C23,9.292 22.5524,9 22,9 C21.4476,9 21,9.292 21,9.65217391 L21,10.3478261 C21,10.708 21.4476,11 22,11 Z" id="Shape"></path>
            <path d="M27,11 C27.5524,11 28,10.708 28,10.3478261 L28,9.65217391 C28,9.292 27.5524,9 27,9 C26.4476,9 26,9.292 26,9.65217391 L26,10.3478261 C26,10.708 26.4476,11 27,11 Z" id="Shape"></path>
        </g>
        <g id="robot-4" transform="translate(142.000000, 71.000000)" fill="#000000" fill-rule="nonzero">
            <path d="M15,5.5 C15,4.12148936 13.8785106,3 12.5,3 C11.1214894,3 10,4.12148936 10,5.5 C10,6.87851064 11.1214894,8 12.5,8 C13.8785106,8 15,6.87851064 15,5.5 Z M11.5957447,5.5 C11.5957447,5.00138298 12.001383,4.59574468 12.5,4.59574468 C12.998617,4.59574468 13.4042553,5.00138298 13.4042553,5.5 C13.4042553,5.99861702 12.998617,6.40425532 12.5,6.40425532 C12.001383,6.40425532 11.5957447,5.99861702 11.5957447,5.5 Z" id="Shape"></path>
            <path d="M19.5,8 C20.8785106,8 22,6.87851064 22,5.5 C22,4.12148936 20.8785106,3 19.5,3 C18.1214894,3 17,4.12148936 17,5.5 C17,6.87851064 18.1214894,8 19.5,8 Z M19.5,4.59574468 C19.998617,4.59574468 20.4042553,5.00138298 20.4042553,5.5 C20.4042553,5.99861702 19.998617,6.40425532 19.5,6.40425532 C19.001383,6.40425532 18.5957447,5.99861702 18.5957447,5.5 C18.5957447,5.00138298 19.001383,4.59574468 19.5,4.59574468 Z" id="Shape"></path>
            <path d="M31.2574257,32.0987041 L31.2574257,29.1322894 C32.2692079,28.7934125 33,27.8439525 33,26.7277538 C33,25.3284017 31.8518614,24.1899568 30.4405941,24.1899568 C30.3204653,24.1899568 30.2024059,24.1988121 30.0866337,24.2147948 L28.7701188,21.6039957 C29.2301584,21.1449244 29.5148515,20.513067 29.5148515,19.8163067 C29.5148515,18.4169546 28.3667129,17.2785097 26.9554455,17.2785097 C26.9372574,17.2785097 26.9191782,17.2799136 26.9009901,17.2802376 L26.9009901,16.3606911 C26.9009901,15.9133909 26.5352673,15.5507559 26.0841584,15.5507559 L19.0594059,15.5507559 L19.0594059,13.7149028 L19.9851485,13.7149028 C21.3964158,13.7149028 22.5445545,12.5764579 22.5445545,11.1771058 L22.5445545,10.2591793 L24.3415842,10.2591793 C24.7926931,10.2591793 25.1584158,9.89654428 25.1584158,9.44924406 L25.1584158,3.40172786 C25.1584158,1.52602592 23.619396,0 21.7277228,0 L11.2722772,0 C9.38060396,0 7.84158416,1.52602592 7.84158416,3.40172786 L7.84158416,9.44924406 C7.84158416,9.89654428 8.20730693,10.2591793 8.65841584,10.2591793 L10.4554455,10.2591793 L10.4554455,11.1771058 C10.4554455,12.5764579 11.6035842,13.7149028 13.0148515,13.7149028 L13.9405941,13.7149028 L13.9405941,15.5507559 L6.91584158,15.5507559 C6.46473267,15.5507559 6.0990099,15.9133909 6.0990099,16.3606911 L6.0990099,17.2803456 C6.08082178,17.2799136 6.06274257,17.2786177 6.04455446,17.2786177 C4.63328713,17.2786177 3.48514851,18.4170626 3.48514851,19.8164147 C3.48514851,20.5131749 3.76984158,21.1450324 4.22988119,21.6041037 L2.91336634,24.2149028 C2.79759406,24.1989201 2.67953465,24.1900648 2.55940594,24.1900648 C1.14813861,24.1900648 0,25.3285097 0,26.7278618 C0,27.8440605 0.730792079,28.7935205 1.74257426,29.1323974 L1.74257426,32.0988121 C0.730792079,32.437689 0,33.387149 0,34.5033477 L0,36.2312095 C0,37.6305616 1.14813861,38.7690065 2.55940594,38.7690065 C3.97067327,38.7690065 5.11881188,37.6305616 5.11881188,36.2312095 C5.11881188,35.7839093 4.75308911,35.4212743 4.3019802,35.4212743 C3.85087129,35.4212743 3.48514851,35.7839093 3.48514851,36.2312095 C3.48514851,36.737365 3.06987129,37.1491361 2.55940594,37.1491361 C2.04894059,37.1491361 1.63366337,36.737365 1.63366337,36.2312095 L1.63366337,34.5033477 C1.63366337,33.9971922 2.04894059,33.5854212 2.55940594,33.5854212 C3.01051485,33.5854212 3.37623762,33.2227862 3.37623762,32.775486 L3.37623762,29.1325054 C4.3880198,28.7936285 5.11881188,27.8441685 5.11881188,26.7279698 C5.11881188,26.0312095 4.83411881,25.3993521 4.37407921,24.9402808 L5.69059406,22.3294816 C5.80636634,22.3454644 5.92442574,22.3543197 6.04455446,22.3543197 C6.24505941,22.3543197 6.44382178,22.3296976 6.63724752,22.2841253 C7.38306931,23.9139309 8.84225743,25.1569114 10.6184851,25.6165227 L12.1186238,30.0789417 C11.7976634,30.3833693 11.5565347,30.7693305 11.429,31.2031317 C10.364505,31.5103672 9.58415842,32.4858531 9.58415842,33.6393089 L9.58415842,38.8228942 C9.58415842,39.9390929 10.3149505,40.8885529 11.3267327,41.2274298 L11.3267327,44.924406 L11.2722772,44.924406 C9.38060396,44.924406 7.84158416,46.450432 7.84158416,48.3261339 L7.84158416,49.1900648 C7.84158416,49.637365 8.20730693,50 8.65841584,50 L13.8861386,50 C14.3372475,50 14.7029703,49.637365 14.7029703,49.1900648 L14.7029703,45.7343413 C14.7029703,45.287041 14.3372475,44.924406 13.8861386,44.924406 L12.960396,44.924406 L12.960396,41.2274298 C13.9721782,40.8885529 14.7029703,39.9390929 14.7029703,38.8228942 L14.7029703,34.4492441 L18.2970297,34.4492441 L18.2970297,38.8228942 C18.2970297,39.9390929 19.0278218,40.8885529 20.039604,41.2274298 L20.039604,44.924406 L19.1138614,44.924406 C18.6627525,44.924406 18.2970297,45.287041 18.2970297,45.7343413 L18.2970297,49.1900648 C18.2970297,49.637365 18.6627525,50 19.1138614,50 L24.3415842,50 C24.7926931,50 25.1584158,49.637365 25.1584158,49.1900648 L25.1584158,48.3261339 C25.1584158,46.450432 23.619396,44.924406 21.7277228,44.924406 L21.6732673,44.924406 L21.6732673,41.2274298 C22.6850495,40.8885529 23.4158416,39.9390929 23.4158416,38.8228942 L23.4158416,33.6393089 C23.4158416,32.4858531 22.635495,31.5103672 21.571,31.2029158 C21.4435743,30.7690065 21.2023366,30.3831533 20.8813762,30.0787257 L22.3815149,25.6163067 C24.1577426,25.1568035 25.6169307,23.9137149 26.3627525,22.2839093 C26.5561782,22.3294816 26.7549406,22.3541037 26.9554455,22.3541037 C27.0755743,22.3541037 27.1936337,22.3452484 27.3094059,22.3292657 L28.6259208,24.9400648 C28.1658812,25.3992441 27.8811881,26.0311015 27.8811881,26.7278618 C27.8811881,27.8440605 28.6119802,28.7935205 29.6237624,29.1323974 L29.6237624,32.775378 C29.6237624,33.2226782 29.9894851,33.5853132 30.4405941,33.5853132 C30.9510594,33.5853132 31.3663366,33.9970842 31.3663366,34.5032397 L31.3663366,36.2311015 C31.3663366,36.737257 30.9510594,37.1490281 30.4405941,37.1490281 C29.9301287,37.1490281 29.5148515,36.737257 29.5148515,36.2311015 C29.5148515,35.7838013 29.1491287,35.4211663 28.6980198,35.4211663 C28.2469109,35.4211663 27.8811881,35.7838013 27.8811881,36.2311015 C27.8811881,37.6304536 29.0293267,38.7688985 30.4405941,38.7688985 C31.8518614,38.7688985 33,37.6304536 33,36.2311015 L33,34.5032397 C33,33.387041 32.2692079,32.437581 31.2574257,32.0987041 Z M13.0693069,48.3801296 L9.47524752,48.3801296 L9.47524752,48.3261339 C9.47524752,47.3436285 10.2814059,46.5442765 11.2722772,46.5442765 L13.0693069,46.5442765 L13.0693069,48.3801296 Z M23.5247525,48.3261339 L23.5247525,48.3801296 L19.9306931,48.3801296 L19.9306931,46.5442765 L21.7277228,46.5442765 C22.7185941,46.5442765 23.5247525,47.3436285 23.5247525,48.3261339 Z M12.960396,17.1706263 L20.039604,17.1706263 L20.039604,18.0885529 C20.039604,19.5474082 18.8425644,20.7343413 17.3712871,20.7343413 L15.6287129,20.7343413 C14.1574356,20.7343413 12.960396,19.5474082 12.960396,18.0885529 L12.960396,17.1706263 Z M9.47524752,3.40172786 C9.47524752,2.41922246 10.2814059,1.61987041 11.2722772,1.61987041 L21.7277228,1.61987041 C22.7185941,1.61987041 23.5247525,2.41922246 23.5247525,3.40172786 L23.5247525,8.63930886 L9.47524752,8.63930886 L9.47524752,3.40172786 Z M12.0891089,11.1771058 L12.0891089,10.2591793 L20.9108911,10.2591793 L20.9108911,11.1771058 C20.9108911,11.6832613 20.4956139,12.0950324 19.9851485,12.0950324 L13.0148515,12.0950324 C12.5043861,12.0950324 12.0891089,11.6832613 12.0891089,11.1771058 Z M15.5742574,13.7149028 L17.4257426,13.7149028 L17.4257426,15.5507559 L15.5742574,15.5507559 L15.5742574,13.7149028 Z M2.55940594,27.6457883 C2.04894059,27.6457883 1.63366337,27.2340173 1.63366337,26.7278618 C1.63366337,26.2217063 2.04894059,25.8099352 2.55940594,25.8099352 C3.06987129,25.8099352 3.48514851,26.2217063 3.48514851,26.7278618 C3.48514851,27.2340173 3.06987129,27.6457883 2.55940594,27.6457883 Z M6.04455446,20.7343413 C5.53408911,20.7343413 5.11881188,20.3225702 5.11881188,19.8164147 C5.11881188,19.3102592 5.53408911,18.8984881 6.04455446,18.8984881 C6.0629604,18.8984881 6.08082178,18.9008639 6.0990099,18.9019438 L6.0990099,19.8164147 C6.0990099,20.125594 6.12275248,20.4292657 6.16849505,20.7259179 C6.12754455,20.7314255 6.08615842,20.7343413 6.04455446,20.7343413 Z M20.2676634,26.7818575 L12.7323366,26.7818575 L12.405604,25.8099352 L20.594396,25.8099352 L20.2676634,26.7818575 Z M20.039604,31.9114471 C20.039604,32.4176026 19.6243267,32.8293737 19.1138614,32.8293737 L13.8861386,32.8293737 C13.3756733,32.8293737 12.960396,32.4176026 12.960396,31.9114471 C12.960396,31.4052916 13.3756733,30.9935205 13.8861386,30.9935205 L19.1138614,30.9935205 C19.6243267,30.9935205 20.039604,31.4052916 20.039604,31.9114471 Z M12.1435644,39.7408207 C11.633099,39.7408207 11.2178218,39.3290497 11.2178218,38.8228942 L11.2178218,33.6393089 C11.2178218,33.3586393 11.3457921,33.1073434 11.5466238,32.9387689 C11.836,33.5841253 12.3888317,34.088013 13.0693069,34.3158747 L13.0693069,38.8228942 C13.0693069,39.3290497 12.6540297,39.7408207 12.1435644,39.7408207 Z M21.7821782,38.8228942 C21.7821782,39.3290497 21.366901,39.7408207 20.8564356,39.7408207 C20.3459703,39.7408207 19.9306931,39.3290497 19.9306931,38.8228942 L19.9306931,34.3159827 C20.6110594,34.088121 21.164,33.5841253 21.4533762,32.9388769 C21.6542079,33.1074514 21.7821782,33.3587473 21.7821782,33.6394168 L21.7821782,38.8228942 Z M19.1138614,29.3736501 L13.8861386,29.3736501 C13.7923663,29.3736501 13.699901,29.3790497 13.6087426,29.3887689 L13.2768911,28.4017279 L19.7231089,28.4017279 L19.3912574,29.3887689 C19.300099,29.3790497 19.2076337,29.3736501 19.1138614,29.3736501 Z M25.2673267,19.8164147 C25.2673267,22.2280778 23.2886337,24.1900648 20.8564356,24.1900648 L12.1435644,24.1900648 C9.71136634,24.1900648 7.73267327,22.2280778 7.73267327,19.8164147 L7.73267327,17.1706263 L11.3267327,17.1706263 L11.3267327,18.0885529 C11.3267327,20.4406048 13.2566337,22.3542117 15.6287129,22.3542117 L17.3712871,22.3542117 C19.7433663,22.3542117 21.6732673,20.4406048 21.6732673,18.0885529 L21.6732673,17.1706263 L25.2673267,17.1706263 L25.2673267,19.8164147 Z M26.831505,20.7259179 C26.8772475,20.4292657 26.9009901,20.125486 26.9009901,19.8164147 L26.9009901,18.9019438 C26.9191782,18.9008639 26.9370396,18.8984881 26.9554455,18.8984881 C27.4659109,18.8984881 27.8811881,19.3102592 27.8811881,19.8164147 C27.8811881,20.3225702 27.4659109,20.7343413 26.9554455,20.7343413 C26.9138416,20.7343413 26.8724554,20.7314255 26.831505,20.7259179 Z M30.4405941,25.8099352 C30.9510594,25.8099352 31.3663366,26.2217063 31.3663366,26.7278618 C31.3663366,27.2340173 30.9510594,27.6457883 30.4405941,27.6457883 C29.9301287,27.6457883 29.5148515,27.2340173 29.5148515,26.7278618 C29.5148515,26.2217063 29.9301287,25.8099352 30.4405941,25.8099352 Z" id="Shape"></path>
        </g>
        <g id="robot-3" transform="translate(101.000000, 73.000000)" fill="#000000" fill-rule="nonzero">
            <path d="M12.5,12 C12.7762,12 13,11.708 13,11.3478261 L13,10.6521739 C13,10.292 12.7762,10 12.5,10 C12.2238,10 12,10.292 12,10.6521739 L12,11.3478261 C12,11.708 12.2238,12 12.5,12 Z" id="Shape"></path>
            <path d="M17.5,12 C17.7762,12 18,11.708 18,11.3478261 L18,10.6521739 C18,10.292 17.7762,10 17.5,10 C17.2238,10 17,10.292 17,10.6521739 L17,11.3478261 C17,11.708 17.2238,12 17.5,12 Z" id="Shape"></path>
            <path d="M30.5970013,30.4009503 L29.4450488,29.824892 L29.4450488,23.1090065 C30.3478359,22.8040173 30.9999028,21.9495032 30.9999028,20.9449244 C30.9999028,19.6855076 29.9754484,18.6609071 28.7162109,18.6609071 L25.5579136,18.6609071 L25.5579136,17.8347732 C25.5579136,17.432203 25.2316858,17.1058315 24.8290758,17.1058315 L23.2256325,17.1058315 L23.2256325,13.1695464 C23.2256325,10.637689 22.0016708,8.38642549 20.1145639,6.97636069 C20.1147583,6.97033477 20.1152118,6.12758099 20.1159244,4.44809935 C21.0187115,4.14311015 21.6707785,3.28859611 21.6707785,2.28401728 C21.6707785,1.02460043 20.646324,0 19.3870866,0 C18.1278491,0 17.1033947,1.02460043 17.1033947,2.28401728 C17.1033947,3.28859611 17.7554616,4.14311015 18.6582487,4.44809935 L18.6582487,6.12068035 C17.6932674,5.68642549 16.6248883,5.44276458 15.4999514,5.44276458 C14.3750145,5.44276458 13.3066354,5.68642549 12.3416541,6.12068035 L12.3416541,4.44809935 C13.2444412,4.14311015 13.8965082,3.28859611 13.8965082,2.28401728 C13.8965082,1.02460043 12.8720537,0 11.6128163,0 C10.3535788,0 9.32912436,1.02460043 9.32912436,2.28401728 C9.32912436,3.28859611 9.98119128,4.14311015 10.8839784,4.44809935 L10.8839784,6.94924406 C8.99823198,8.38642549 7.7742703,10.637689 7.7742703,13.1695464 L7.7742703,17.1058315 L6.17082705,17.1058315 C5.76821703,17.1058315 5.44198921,17.432203 5.44198921,17.8347732 L5.44198921,18.6609071 L2.2836919,18.6609071 C1.02445447,18.6609071 0,19.6855076 0,20.9449244 C0,21.9495032 0.652066921,22.8040173 1.55485406,23.1090065 L1.55485406,29.824892 L0.402901558,30.4009503 C0.156068476,30.5243844 0,30.7767927 0,31.0529158 L0,33.3855292 C0,33.6616523 0.155971298,33.9140605 0.402901558,34.0374946 L1.95775562,34.8150324 C2.06241673,34.867419 2.17368598,34.8921058 2.28320601,34.8921058 C2.55054373,34.8921058 2.80796925,34.7443737 2.93566164,34.4890497 C3.11573318,34.1289525 2.96977125,33.6911015 2.60972536,33.5111015 L1.45767568,32.9350432 L1.45767568,31.5034989 L2.2836919,31.090432 L3.10970812,31.5034989 L3.10970812,32.6079914 C3.10970812,33.0105616 3.43593594,33.336933 3.83854596,33.336933 C4.24115598,33.336933 4.5673838,33.0105616 4.5673838,32.6079914 L4.5673838,31.0529158 C4.5673838,30.7767927 4.4114125,30.5243844 4.16448224,30.4009503 L3.01252974,29.824892 L3.01252974,23.2289417 L5.44198921,23.2289417 L5.44198921,26.387689 C5.44198921,28.9195464 6.66595089,31.1708099 8.55305783,32.5808747 C8.55286347,32.5869006 8.55240997,34.1510151 8.55169733,37.2732181 C8.55169733,38.277797 9.20376425,39.132311 10.1065514,39.4373002 L10.1065514,40.4319654 L8.50310814,40.4319654 C8.23032843,40.4319654 7.98048282,40.5841685 7.85541425,40.8265659 L6.45410202,43.5421166 L6.17082705,43.5421166 C5.76821703,43.5421166 5.44198921,43.8684881 5.44198921,44.2710583 C5.44198921,44.6736285 5.76821703,45 6.17082705,45 L13.1676703,45 C13.5702803,45 13.8965082,44.6736285 13.8965082,44.2710583 L13.8965082,41.1609071 C13.8965082,40.7583369 13.5702803,40.4319654 13.1676703,40.4319654 L11.5642271,40.4319654 L11.5642271,39.4373002 C12.4670142,39.132311 13.1190811,38.277797 13.1190811,37.2732181 L13.1190811,34.1132073 C13.1299003,34.1132721 14.7009508,34.1136933 17.8322325,34.1144708 C17.8431165,34.1144708 17.8593129,35.1673866 17.8808217,37.2732181 C17.8808217,38.277797 18.5328886,39.132311 19.4356758,39.4373002 L19.4356758,40.4319654 L17.8322325,40.4319654 C17.4296225,40.4319654 17.1033947,40.7583369 17.1033947,41.1609071 L17.1033947,44.2710583 C17.1033947,44.6736285 17.4296225,45 17.8322325,45 L24.8290758,45 C25.2316858,45 25.5579136,44.6736285 25.5579136,44.2710583 C25.5579136,43.8684881 25.2316858,43.5421166 24.8290758,43.5421166 L24.5458008,43.5421166 L23.1444886,40.8265659 C23.01942,40.5841685 22.7695744,40.4319654 22.4967947,40.4319654 L20.8933514,40.4319654 L20.8933514,39.4373002 C21.7961386,39.132311 22.4482055,38.277797 22.4482055,37.2732181 L22.4482055,32.6079914 C24.3339519,31.1708099 25.5579136,28.9195464 25.5579136,26.387689 L25.5579136,23.2289417 L27.9873731,23.2289417 L27.9873731,29.824892 L26.8354206,30.4009503 C26.5885875,30.5243844 26.432519,30.7767927 26.432519,31.0529158 L26.432519,32.6079914 C26.432519,33.0105616 26.7587468,33.336933 27.1613569,33.336933 C27.5639669,33.336933 27.8901947,33.0105616 27.8901947,32.6079914 L27.8901947,31.5034017 L28.7162109,31.0903348 L29.5422271,31.5034017 L29.5422271,32.934946 L28.3902746,33.5110043 C28.0303259,33.6910043 27.884364,34.1288553 28.0643384,34.4889525 C28.1919336,34.7443737 28.4494563,34.8921058 28.716794,34.8920086 C28.826314,34.8920086 28.9374861,34.8672246 29.0422444,34.8149352 L30.5970984,34.0373974 C30.8439315,33.9139633 31,33.6615551 31,33.385432 L31,31.0528186 C30.9999028,30.7767927 30.8439315,30.5243844 30.5970013,30.4009503 Z M19.3870866,1.45788337 C19.8425616,1.45788337 20.2131028,1.82847732 20.2131028,2.28401728 C20.2131028,2.73955724 19.8425616,3.11015119 19.3870866,3.11015119 C18.9316115,3.11015119 18.5610703,2.73955724 18.5610703,2.28401728 C18.5610703,1.82847732 18.9316115,1.45788337 19.3870866,1.45788337 Z M11.6128163,1.45788337 C12.0682913,1.45788337 12.4388325,1.82847732 12.4388325,2.28401728 C12.4388325,2.73955724 12.0682913,3.11015119 11.6128163,3.11015119 C11.1573412,3.11015119 10.7868,2.73955724 10.7868,2.28401728 C10.7868,1.82847732 11.1573412,1.45788337 11.6128163,1.45788337 Z M12.4388325,43.5421166 L8.09447306,43.5421166 L8.94711615,41.8898488 L12.4388325,41.8898488 L12.4388325,43.5421166 Z M22.9054298,43.5421166 L18.5610703,43.5421166 L18.5610703,41.8898488 L22.0527867,41.8898488 L22.9054298,43.5421166 Z M28.7162109,21.7710583 C28.2607359,21.7710583 27.8901947,21.4004644 27.8901947,20.9449244 C27.8901947,20.4893844 28.2607359,20.1187905 28.7162109,20.1187905 C29.171686,20.1187905 29.5422271,20.4893844 29.5422271,20.9449244 C29.5422271,21.4004644 29.171686,21.7710583 28.7162109,21.7710583 Z M15.4999514,6.90064795 C18.9561005,6.90064795 21.7679568,9.71290497 21.7679568,13.1695464 L21.7679568,13.9956803 L9.23194598,13.9956803 L9.23194598,13.1695464 C9.23194598,9.71290497 12.0438024,6.90064795 15.4999514,6.90064795 Z M9.23194598,15.4535637 L21.7679568,15.4535637 L21.7679568,17.1058315 L9.23194598,17.1058315 L9.23194598,15.4535637 Z M2.2836919,20.1187905 C2.73916696,20.1187905 3.10970812,20.4893844 3.10970812,20.9449244 C3.10970812,21.4004644 2.73916696,21.7710583 2.2836919,21.7710583 C1.82821684,21.7710583 1.45767568,21.4004644 1.45767568,20.9449244 C1.45767568,20.4893844 1.82821684,20.1187905 2.2836919,20.1187905 Z M4.41218993,21.7710583 C4.51199213,21.5146652 4.5673838,21.2362095 4.5673838,20.9449244 C4.5673838,20.6536393 4.51199213,20.3751836 4.41218993,20.1187905 L5.44198921,20.1187905 L5.44198921,21.7710583 L4.41218993,21.7710583 Z M10.8353892,38.0993521 C10.3799142,38.0993521 10.009373,37.7287581 10.009373,37.2732181 C10.009373,36.8176782 10.3799142,36.4470842 10.8353892,36.4470842 C11.2908643,36.4470842 11.6614055,36.8176782 11.6614055,37.2732181 C11.6614055,37.7287581 11.2908643,38.0993521 10.8353892,38.0993521 Z M11.6614055,35.1444168 C11.4050489,35.0446004 11.1266328,34.9892009 10.8353892,34.9892009 C10.5441456,34.9892009 10.2657296,35.0446004 10.009373,35.1444168 L10.009373,33.4365551 C10.5321927,33.6718575 11.0850405,33.8515659 11.6614055,33.9659611 L11.6614055,35.1444168 Z M6.89966489,26.387689 L6.89966489,18.5637149 L14.7711136,18.5637149 L14.7711136,20.9935205 L12.3902433,20.9935205 C10.702352,20.9935205 9.32912436,22.3669438 9.32912436,24.0550756 C9.32912436,25.7432073 10.702352,27.1166307 12.3902433,27.1166307 L14.7711136,27.1166307 L14.7711136,32.6565875 L13.1676703,32.6565875 C9.71152128,32.6565875 6.89966489,29.8443305 6.89966489,26.387689 Z M12.3902433,25.6587473 C11.5061144,25.6587473 10.7868,24.9393305 10.7868,24.0550756 C10.7868,23.1708207 11.5061144,22.4514039 12.3902433,22.4514039 L18.6096595,22.4514039 C19.4937884,22.4514039 20.2131028,23.1708207 20.2131028,24.0550756 C20.2131028,24.9393305 19.4937884,25.6587473 18.6096595,25.6587473 L12.3902433,25.6587473 Z M20.1645136,38.0993521 C19.7090385,38.0993521 19.3384974,37.7287581 19.3384974,37.2732181 C19.3384974,36.8176782 19.7090385,36.4470842 20.1645136,36.4470842 C20.6199887,36.4470842 20.9905298,36.8176782 20.9905298,37.2732181 C20.9905298,37.7287581 20.6199887,38.0993521 20.1645136,38.0993521 Z M20.9905298,35.1444168 C20.7341732,35.0446004 20.4557572,34.9892009 20.1645136,34.9892009 C19.87327,34.9892009 19.5948539,35.0446004 19.3384974,35.1444168 L19.3384974,33.9659611 C19.9148623,33.8515659 20.4677101,33.6718575 20.9905298,33.4365551 L20.9905298,35.1444168 Z M24.1002379,26.387689 C24.1002379,29.8443305 21.2883815,32.6565875 17.8322325,32.6565875 L16.2287893,32.6565875 L16.2287893,27.1166307 L18.6096595,27.1166307 C20.2975508,27.1166307 21.6707785,25.7432073 21.6707785,24.0550756 C21.6707785,22.3669438 20.2975508,20.9935205 18.6096595,20.9935205 L16.2287893,20.9935205 L16.2287893,18.5637149 L24.1002379,18.5637149 L24.1002379,26.387689 Z M25.5579136,20.1187905 L26.5877129,20.1187905 C26.4879107,20.3751836 26.432519,20.6536393 26.432519,20.9449244 C26.432519,21.2362095 26.4879107,21.5146652 26.5877129,21.7710583 L25.5579136,21.7710583 L25.5579136,20.1187905 Z" id="Shape"></path>
        </g>
        <g id="robot-2" transform="translate(74.500000, 96.000000) scale(-1, 1) translate(-74.500000, -96.000000) translate(58.000000, 71.000000)" fill="#000000" fill-rule="nonzero">
            <path d="M15,5.5 C15,4.12148936 13.8785106,3 12.5,3 C11.1214894,3 10,4.12148936 10,5.5 C10,6.87851064 11.1214894,8 12.5,8 C13.8785106,8 15,6.87851064 15,5.5 Z M11.5957447,5.5 C11.5957447,5.00138298 12.001383,4.59574468 12.5,4.59574468 C12.998617,4.59574468 13.4042553,5.00138298 13.4042553,5.5 C13.4042553,5.99861702 12.998617,6.40425532 12.5,6.40425532 C12.001383,6.40425532 11.5957447,5.99861702 11.5957447,5.5 Z" id="Shape"></path>
            <path d="M19.5,8 C20.8785106,8 22,6.87851064 22,5.5 C22,4.12148936 20.8785106,3 19.5,3 C18.1214894,3 17,4.12148936 17,5.5 C17,6.87851064 18.1214894,8 19.5,8 Z M19.5,4.59574468 C19.998617,4.59574468 20.4042553,5.00138298 20.4042553,5.5 C20.4042553,5.99861702 19.998617,6.40425532 19.5,6.40425532 C19.001383,6.40425532 18.5957447,5.99861702 18.5957447,5.5 C18.5957447,5.00138298 19.001383,4.59574468 19.5,4.59574468 Z" id="Shape"></path>
            <path d="M31.2574257,32.0987041 L31.2574257,29.1322894 C32.2692079,28.7934125 33,27.8439525 33,26.7277538 C33,25.3284017 31.8518614,24.1899568 30.4405941,24.1899568 C30.3204653,24.1899568 30.2024059,24.1988121 30.0866337,24.2147948 L28.7701188,21.6039957 C29.2301584,21.1449244 29.5148515,20.513067 29.5148515,19.8163067 C29.5148515,18.4169546 28.3667129,17.2785097 26.9554455,17.2785097 C26.9372574,17.2785097 26.9191782,17.2799136 26.9009901,17.2802376 L26.9009901,16.3606911 C26.9009901,15.9133909 26.5352673,15.5507559 26.0841584,15.5507559 L19.0594059,15.5507559 L19.0594059,13.7149028 L19.9851485,13.7149028 C21.3964158,13.7149028 22.5445545,12.5764579 22.5445545,11.1771058 L22.5445545,10.2591793 L24.3415842,10.2591793 C24.7926931,10.2591793 25.1584158,9.89654428 25.1584158,9.44924406 L25.1584158,3.40172786 C25.1584158,1.52602592 23.619396,0 21.7277228,0 L11.2722772,0 C9.38060396,0 7.84158416,1.52602592 7.84158416,3.40172786 L7.84158416,9.44924406 C7.84158416,9.89654428 8.20730693,10.2591793 8.65841584,10.2591793 L10.4554455,10.2591793 L10.4554455,11.1771058 C10.4554455,12.5764579 11.6035842,13.7149028 13.0148515,13.7149028 L13.9405941,13.7149028 L13.9405941,15.5507559 L6.91584158,15.5507559 C6.46473267,15.5507559 6.0990099,15.9133909 6.0990099,16.3606911 L6.0990099,17.2803456 C6.08082178,17.2799136 6.06274257,17.2786177 6.04455446,17.2786177 C4.63328713,17.2786177 3.48514851,18.4170626 3.48514851,19.8164147 C3.48514851,20.5131749 3.76984158,21.1450324 4.22988119,21.6041037 L2.91336634,24.2149028 C2.79759406,24.1989201 2.67953465,24.1900648 2.55940594,24.1900648 C1.14813861,24.1900648 0,25.3285097 0,26.7278618 C0,27.8440605 0.730792079,28.7935205 1.74257426,29.1323974 L1.74257426,32.0988121 C0.730792079,32.437689 0,33.387149 0,34.5033477 L0,36.2312095 C0,37.6305616 1.14813861,38.7690065 2.55940594,38.7690065 C3.97067327,38.7690065 5.11881188,37.6305616 5.11881188,36.2312095 C5.11881188,35.7839093 4.75308911,35.4212743 4.3019802,35.4212743 C3.85087129,35.4212743 3.48514851,35.7839093 3.48514851,36.2312095 C3.48514851,36.737365 3.06987129,37.1491361 2.55940594,37.1491361 C2.04894059,37.1491361 1.63366337,36.737365 1.63366337,36.2312095 L1.63366337,34.5033477 C1.63366337,33.9971922 2.04894059,33.5854212 2.55940594,33.5854212 C3.01051485,33.5854212 3.37623762,33.2227862 3.37623762,32.775486 L3.37623762,29.1325054 C4.3880198,28.7936285 5.11881188,27.8441685 5.11881188,26.7279698 C5.11881188,26.0312095 4.83411881,25.3993521 4.37407921,24.9402808 L5.69059406,22.3294816 C5.80636634,22.3454644 5.92442574,22.3543197 6.04455446,22.3543197 C6.24505941,22.3543197 6.44382178,22.3296976 6.63724752,22.2841253 C7.38306931,23.9139309 8.84225743,25.1569114 10.6184851,25.6165227 L12.1186238,30.0789417 C11.7976634,30.3833693 11.5565347,30.7693305 11.429,31.2031317 C10.364505,31.5103672 9.58415842,32.4858531 9.58415842,33.6393089 L9.58415842,38.8228942 C9.58415842,39.9390929 10.3149505,40.8885529 11.3267327,41.2274298 L11.3267327,44.924406 L11.2722772,44.924406 C9.38060396,44.924406 7.84158416,46.450432 7.84158416,48.3261339 L7.84158416,49.1900648 C7.84158416,49.637365 8.20730693,50 8.65841584,50 L13.8861386,50 C14.3372475,50 14.7029703,49.637365 14.7029703,49.1900648 L14.7029703,45.7343413 C14.7029703,45.287041 14.3372475,44.924406 13.8861386,44.924406 L12.960396,44.924406 L12.960396,41.2274298 C13.9721782,40.8885529 14.7029703,39.9390929 14.7029703,38.8228942 L14.7029703,34.4492441 L18.2970297,34.4492441 L18.2970297,38.8228942 C18.2970297,39.9390929 19.0278218,40.8885529 20.039604,41.2274298 L20.039604,44.924406 L19.1138614,44.924406 C18.6627525,44.924406 18.2970297,45.287041 18.2970297,45.7343413 L18.2970297,49.1900648 C18.2970297,49.637365 18.6627525,50 19.1138614,50 L24.3415842,50 C24.7926931,50 25.1584158,49.637365 25.1584158,49.1900648 L25.1584158,48.3261339 C25.1584158,46.450432 23.619396,44.924406 21.7277228,44.924406 L21.6732673,44.924406 L21.6732673,41.2274298 C22.6850495,40.8885529 23.4158416,39.9390929 23.4158416,38.8228942 L23.4158416,33.6393089 C23.4158416,32.4858531 22.635495,31.5103672 21.571,31.2029158 C21.4435743,30.7690065 21.2023366,30.3831533 20.8813762,30.0787257 L22.3815149,25.6163067 C24.1577426,25.1568035 25.6169307,23.9137149 26.3627525,22.2839093 C26.5561782,22.3294816 26.7549406,22.3541037 26.9554455,22.3541037 C27.0755743,22.3541037 27.1936337,22.3452484 27.3094059,22.3292657 L28.6259208,24.9400648 C28.1658812,25.3992441 27.8811881,26.0311015 27.8811881,26.7278618 C27.8811881,27.8440605 28.6119802,28.7935205 29.6237624,29.1323974 L29.6237624,32.775378 C29.6237624,33.2226782 29.9894851,33.5853132 30.4405941,33.5853132 C30.9510594,33.5853132 31.3663366,33.9970842 31.3663366,34.5032397 L31.3663366,36.2311015 C31.3663366,36.737257 30.9510594,37.1490281 30.4405941,37.1490281 C29.9301287,37.1490281 29.5148515,36.737257 29.5148515,36.2311015 C29.5148515,35.7838013 29.1491287,35.4211663 28.6980198,35.4211663 C28.2469109,35.4211663 27.8811881,35.7838013 27.8811881,36.2311015 C27.8811881,37.6304536 29.0293267,38.7688985 30.4405941,38.7688985 C31.8518614,38.7688985 33,37.6304536 33,36.2311015 L33,34.5032397 C33,33.387041 32.2692079,32.437581 31.2574257,32.0987041 Z M13.0693069,48.3801296 L9.47524752,48.3801296 L9.47524752,48.3261339 C9.47524752,47.3436285 10.2814059,46.5442765 11.2722772,46.5442765 L13.0693069,46.5442765 L13.0693069,48.3801296 Z M23.5247525,48.3261339 L23.5247525,48.3801296 L19.9306931,48.3801296 L19.9306931,46.5442765 L21.7277228,46.5442765 C22.7185941,46.5442765 23.5247525,47.3436285 23.5247525,48.3261339 Z M12.960396,17.1706263 L20.039604,17.1706263 L20.039604,18.0885529 C20.039604,19.5474082 18.8425644,20.7343413 17.3712871,20.7343413 L15.6287129,20.7343413 C14.1574356,20.7343413 12.960396,19.5474082 12.960396,18.0885529 L12.960396,17.1706263 Z M9.47524752,3.40172786 C9.47524752,2.41922246 10.2814059,1.61987041 11.2722772,1.61987041 L21.7277228,1.61987041 C22.7185941,1.61987041 23.5247525,2.41922246 23.5247525,3.40172786 L23.5247525,8.63930886 L9.47524752,8.63930886 L9.47524752,3.40172786 Z M12.0891089,11.1771058 L12.0891089,10.2591793 L20.9108911,10.2591793 L20.9108911,11.1771058 C20.9108911,11.6832613 20.4956139,12.0950324 19.9851485,12.0950324 L13.0148515,12.0950324 C12.5043861,12.0950324 12.0891089,11.6832613 12.0891089,11.1771058 Z M15.5742574,13.7149028 L17.4257426,13.7149028 L17.4257426,15.5507559 L15.5742574,15.5507559 L15.5742574,13.7149028 Z M2.55940594,27.6457883 C2.04894059,27.6457883 1.63366337,27.2340173 1.63366337,26.7278618 C1.63366337,26.2217063 2.04894059,25.8099352 2.55940594,25.8099352 C3.06987129,25.8099352 3.48514851,26.2217063 3.48514851,26.7278618 C3.48514851,27.2340173 3.06987129,27.6457883 2.55940594,27.6457883 Z M6.04455446,20.7343413 C5.53408911,20.7343413 5.11881188,20.3225702 5.11881188,19.8164147 C5.11881188,19.3102592 5.53408911,18.8984881 6.04455446,18.8984881 C6.0629604,18.8984881 6.08082178,18.9008639 6.0990099,18.9019438 L6.0990099,19.8164147 C6.0990099,20.125594 6.12275248,20.4292657 6.16849505,20.7259179 C6.12754455,20.7314255 6.08615842,20.7343413 6.04455446,20.7343413 Z M20.2676634,26.7818575 L12.7323366,26.7818575 L12.405604,25.8099352 L20.594396,25.8099352 L20.2676634,26.7818575 Z M20.039604,31.9114471 C20.039604,32.4176026 19.6243267,32.8293737 19.1138614,32.8293737 L13.8861386,32.8293737 C13.3756733,32.8293737 12.960396,32.4176026 12.960396,31.9114471 C12.960396,31.4052916 13.3756733,30.9935205 13.8861386,30.9935205 L19.1138614,30.9935205 C19.6243267,30.9935205 20.039604,31.4052916 20.039604,31.9114471 Z M12.1435644,39.7408207 C11.633099,39.7408207 11.2178218,39.3290497 11.2178218,38.8228942 L11.2178218,33.6393089 C11.2178218,33.3586393 11.3457921,33.1073434 11.5466238,32.9387689 C11.836,33.5841253 12.3888317,34.088013 13.0693069,34.3158747 L13.0693069,38.8228942 C13.0693069,39.3290497 12.6540297,39.7408207 12.1435644,39.7408207 Z M21.7821782,38.8228942 C21.7821782,39.3290497 21.366901,39.7408207 20.8564356,39.7408207 C20.3459703,39.7408207 19.9306931,39.3290497 19.9306931,38.8228942 L19.9306931,34.3159827 C20.6110594,34.088121 21.164,33.5841253 21.4533762,32.9388769 C21.6542079,33.1074514 21.7821782,33.3587473 21.7821782,33.6394168 L21.7821782,38.8228942 Z M19.1138614,29.3736501 L13.8861386,29.3736501 C13.7923663,29.3736501 13.699901,29.3790497 13.6087426,29.3887689 L13.2768911,28.4017279 L19.7231089,28.4017279 L19.3912574,29.3887689 C19.300099,29.3790497 19.2076337,29.3736501 19.1138614,29.3736501 Z M25.2673267,19.8164147 C25.2673267,22.2280778 23.2886337,24.1900648 20.8564356,24.1900648 L12.1435644,24.1900648 C9.71136634,24.1900648 7.73267327,22.2280778 7.73267327,19.8164147 L7.73267327,17.1706263 L11.3267327,17.1706263 L11.3267327,18.0885529 C11.3267327,20.4406048 13.2566337,22.3542117 15.6287129,22.3542117 L17.3712871,22.3542117 C19.7433663,22.3542117 21.6732673,20.4406048 21.6732673,18.0885529 L21.6732673,17.1706263 L25.2673267,17.1706263 L25.2673267,19.8164147 Z M26.831505,20.7259179 C26.8772475,20.4292657 26.9009901,20.125486 26.9009901,19.8164147 L26.9009901,18.9019438 C26.9191782,18.9008639 26.9370396,18.8984881 26.9554455,18.8984881 C27.4659109,18.8984881 27.8811881,19.3102592 27.8811881,19.8164147 C27.8811881,20.3225702 27.4659109,20.7343413 26.9554455,20.7343413 C26.9138416,20.7343413 26.8724554,20.7314255 26.831505,20.7259179 Z M30.4405941,25.8099352 C30.9510594,25.8099352 31.3663366,26.2217063 31.3663366,26.7278618 C31.3663366,27.2340173 30.9510594,27.6457883 30.4405941,27.6457883 C29.9301287,27.6457883 29.5148515,27.2340173 29.5148515,26.7278618 C29.5148515,26.2217063 29.9301287,25.8099352 30.4405941,25.8099352 Z" id="Shape"></path>
        </g>
        <g id="robot-1" transform="translate(24.000000, 95.500000) scale(-1, 1) translate(-24.000000, -95.500000) translate(0.000000, 82.000000)" fill="#000000" fill-rule="nonzero">
            <path d="M47.2224622,1.64257931 L38.8768898,1.64257931 L38.8768898,0.76995905 C38.8768898,0.344736332 38.5288639,0 38.0993521,0 C37.6698402,0 37.3218143,0.344736332 37.3218143,0.76995905 L37.3218143,1.64257931 L28.9762419,1.64257931 C28.54673,1.64257931 28.1987041,1.98731564 28.1987041,2.41253836 C28.1987041,2.83776107 28.54673,3.1824974 28.9762419,3.1824974 L35.663067,3.1824974 L35.663067,4.93030445 C35.6458575,4.92917517 35.6287516,4.92773792 35.6112311,4.92773792 L12.3887689,4.92773792 C12.3712484,4.92773792 12.3541425,4.92917517 12.336933,4.93030445 L12.336933,3.1824974 L19.0237581,3.1824974 C19.45327,3.1824974 19.8012959,2.83776107 19.8012959,2.41253836 C19.8012959,1.98731564 19.45327,1.64257931 19.0237581,1.64257931 L10.6781857,1.64257931 L10.6781857,0.76995905 C10.6781857,0.344736332 10.3301598,0 9.90064795,0 C9.47113607,0 9.12311015,0.344736332 9.12311015,0.76995905 L9.12311015,1.64257931 L0.777537797,1.64257931 C0.348025918,1.64257931 0,1.98731564 0,2.41253836 C0,2.83776107 0.348025918,3.1824974 0.777537797,3.1824974 L7.46436285,3.1824974 L7.46436285,5.69769697 C7.46436285,6.7588032 8.16,7.66140053 9.12311015,7.98355139 L9.12311015,8.98285558 C9.12311015,9.4080783 9.47113607,9.75281463 9.90064795,9.75281463 C10.3301598,9.75281463 10.6781857,9.4080783 10.6781857,8.98285558 L10.6781857,7.98355139 C11.4035767,7.7408603 11.9768812,7.16903738 12.2157408,6.44794506 C12.2714125,6.46046973 12.3291577,6.46775868 12.3887689,6.46775868 L16.7413218,6.46775868 L16.9564406,7.42630636 C16.0441296,7.57957955 15.3028769,8.23620062 15.0358186,9.09691218 C13.1612268,9.43487287 11.1864881,11.1196459 10.8376328,13.2488394 C9.8454946,13.5540511 9.12311015,14.471637 9.12311015,15.5531728 C9.12311015,16.614279 9.8187473,17.5168764 10.7818575,17.8390272 L10.7818575,19.8377383 C9.8187473,20.1598891 9.12311015,21.0624865 9.12311015,22.1235927 L9.12311015,22.763172 L8.37584449,24.243136 C8.32183153,24.3500063 8.2937365,24.4677587 8.2937365,24.587359 L8.2937365,26.2299383 C8.2937365,26.655161 8.64176242,26.9998973 9.0712743,26.9998973 C9.50078618,26.9998973 9.8488121,26.655161 9.8488121,26.2299383 L9.8488121,24.769172 L10.3811663,23.7147387 L12.7376242,23.7147387 L13.2699784,24.769172 L13.2699784,26.2299383 C13.2699784,26.655161 13.6180043,26.9998973 14.0475162,26.9998973 C14.4770281,26.9998973 14.825054,26.655161 14.825054,26.2299383 L14.825054,24.587359 C14.825054,24.4677587 14.796959,24.3499036 14.742946,24.2430333 L13.9956803,22.7630693 L13.9956803,22.12349 C13.9956803,21.0623838 13.3000432,20.1597865 12.336933,19.8376356 L12.336933,17.8389246 C13.3000432,17.5167737 13.9956803,16.6141764 13.9956803,15.5530701 C13.9956803,14.5201957 13.3366393,13.6372067 12.4132354,13.293805 C12.7223844,12.0251178 13.9292268,10.956312 15.0868251,10.6577732 C15.435784,11.5679674 16.3250799,12.2166836 17.3650108,12.2166836 L18.0466523,12.2166836 C18.1730281,12.5916023 18.3848294,12.9204262 18.6586263,13.1832388 L17.3009417,14.52769 C16.8408467,14.9833004 16.5873693,15.5892069 16.5873693,16.2336113 L16.5873693,17.2470827 L15.7061598,17.2470827 C15.2766479,17.2470827 14.928622,17.591819 14.928622,18.0170418 C14.928622,18.4422645 15.2766479,18.7870008 15.7061598,18.7870008 L19.0236544,18.7870008 C19.4531663,18.7870008 19.8011922,18.4422645 19.8011922,18.0170418 C19.8011922,17.591819 19.4531663,17.2470827 19.0236544,17.2470827 L18.1425486,17.2470827 L18.1425486,16.2335086 C18.1425486,16.000365 18.2341944,15.781286 18.4006911,15.6164121 L20.1824968,13.8519739 C20.2394125,13.8558751 20.296432,13.8591602 20.3542808,13.8591602 L27.6455119,13.8591602 C27.7033607,13.8591602 27.7604838,13.8557724 27.8172959,13.8519739 L29.5991015,15.6164121 C29.7655983,15.7811833 29.8572441,16.000365 29.8572441,16.2335086 L29.8572441,17.2470827 L28.9760346,17.2470827 C28.5465227,17.2470827 28.1984968,17.591819 28.1984968,18.0170418 C28.1984968,18.4422645 28.5465227,18.7870008 28.9760346,18.7870008 L32.2935292,18.7870008 C32.723041,18.7870008 33.071067,18.4422645 33.071067,18.0170418 C33.071067,17.591819 32.723041,17.2470827 32.2935292,17.2470827 L31.412527,17.2470827 L31.412527,16.2335086 C31.412527,15.5891042 31.1591533,14.9831978 30.6989546,14.5275873 L29.34127,13.1831362 C29.615067,12.9203235 29.8268683,12.5916023 29.9532441,12.2165809 L30.6348855,12.2165809 C31.6748164,12.2165809 32.5641123,11.5678648 32.9130713,10.6578758 C34.0706695,10.9564146 35.2775119,12.0252204 35.5866609,13.2939076 C34.6633607,13.6373094 34.0043197,14.5202984 34.0043197,15.5531728 C34.0043197,16.614279 34.6999568,17.5168764 35.663067,17.8390272 L35.663067,19.8377383 C34.6999568,20.1598891 34.0043197,21.0624865 34.0043197,22.1235927 L34.0043197,22.763172 L33.257054,24.243136 C33.203041,24.3501089 33.174946,24.4678613 33.174946,24.5874616 L33.174946,26.230041 C33.174946,26.6552637 33.5229719,27 33.9524838,27 C34.3819957,27 34.7300216,26.6552637 34.7300216,26.230041 L34.7300216,24.7692746 L35.2623758,23.7147387 L37.6188337,23.7147387 L38.1511879,24.769172 L38.1511879,26.2299383 C38.1511879,26.655161 38.4992138,26.9998973 38.9287257,26.9998973 C39.3582376,26.9998973 39.7062635,26.655161 39.7062635,26.2299383 L39.7062635,24.587359 C39.7062635,24.4677587 39.6781685,24.3499036 39.6241555,24.2430333 L38.8768898,22.7630693 L38.8768898,22.12349 C38.8768898,21.0623838 38.1812527,20.1597865 37.2181425,19.8376356 L37.2181425,17.8389246 C38.1812527,17.5167737 38.8768898,16.6141764 38.8768898,15.5530701 C38.8768898,14.4715343 38.1545054,13.5539485 37.1624708,13.248634 C36.8136156,11.1194406 34.8388769,9.43466755 32.9642851,9.09670686 C32.6972268,8.2359953 31.9558704,7.57927156 31.0436631,7.42610104 L31.2587819,6.46755336 L35.6112311,6.46755336 C35.6707387,6.46755336 35.7285875,6.46026441 35.7842592,6.44773974 C36.0231188,7.16883206 36.5964233,7.74075764 37.3218143,7.98334607 L37.3218143,8.98265026 C37.3218143,9.40787297 37.6698402,9.75260931 38.0993521,9.75260931 C38.5288639,9.75260931 38.8768898,9.40787297 38.8768898,8.98265026 L38.8768898,7.98334607 C39.84,7.6611952 40.5356371,6.75859788 40.5356371,5.69749164 L40.5356371,3.1824974 L47.2224622,3.1824974 C47.6519741,3.1824974 48,2.83776107 48,2.41253836 C48,1.98731564 47.6519741,1.64257931 47.2224622,1.64257931 Z M9.90064795,6.57031722 C9.41473866,6.57031722 9.01943844,6.17887004 9.01943844,5.69769697 L9.01943844,3.1824974 L10.7818575,3.1824974 L10.7818575,5.69769697 C10.7818575,6.17887004 10.3865572,6.57031722 9.90064795,6.57031722 Z M12.4406048,22.1748206 L10.6781857,22.1748206 L10.6781857,22.12349 C10.6781857,21.6423169 11.073486,21.2508698 11.5593952,21.2508698 C12.0453045,21.2508698 12.4406048,21.6423169 12.4406048,22.12349 L12.4406048,22.1748206 Z M11.5593952,16.4257931 C11.073486,16.4257931 10.6781857,16.0343459 10.6781857,15.5531728 C10.6781857,15.0719997 11.073486,14.6805525 11.5593952,14.6805525 C12.0453045,14.6805525 12.4406048,15.0719997 12.4406048,15.5531728 C12.4406048,16.0343459 12.0453045,16.4257931 11.5593952,16.4257931 Z M37.3218143,22.1748206 L35.5593952,22.1748206 L35.5593952,22.12349 C35.5593952,21.6423169 35.9546955,21.2508698 36.4406048,21.2508698 C36.926514,21.2508698 37.3218143,21.6423169 37.3218143,22.12349 L37.3218143,22.1748206 Z M36.4406048,16.4257931 C35.9546955,16.4257931 35.5593952,16.0343459 35.5593952,15.5531728 C35.5593952,15.0719997 35.9546955,14.6805525 36.4406048,14.6805525 C36.926514,14.6805525 37.3218143,15.0719997 37.3218143,15.5531728 C37.3218143,16.0343459 36.926514,16.4257931 36.4406048,16.4257931 Z M16.4838013,9.80414523 C16.4838013,9.34637891 16.8418834,8.97053623 17.2950324,8.93501546 L17.6858747,10.6767655 L17.3650108,10.6767655 C16.8791015,10.6767655 16.4838013,10.2853183 16.4838013,9.80414523 Z M31.5161987,9.80414523 C31.5161987,10.2853183 31.1208985,10.6767655 30.6349892,10.6767655 L30.3141253,10.6767655 L30.7049676,8.93501546 C31.1581166,8.97053623 31.5161987,9.34637891 31.5161987,9.80414523 Z M28.5058834,11.6360318 C28.4155853,12.0383611 28.0618575,12.3193448 27.6456156,12.3193448 L20.3543844,12.3193448 C19.9381425,12.3193448 19.5844147,12.0383611 19.4941166,11.6360318 L18.3342376,6.46765602 L29.6656587,6.46765602 L28.5058834,11.6360318 Z M38.9805616,5.69769697 C38.9805616,6.17887004 38.5852613,6.57031722 38.0993521,6.57031722 C37.6134428,6.57031722 37.2181425,6.17887004 37.2181425,5.69769697 L37.2181425,3.1824974 L38.9805616,3.1824974 L38.9805616,5.69769697 Z" id="Shape"></path>
            <path d="M22,11 C22.5524,11 23,10.708 23,10.3478261 L23,9.65217391 C23,9.292 22.5524,9 22,9 C21.4476,9 21,9.292 21,9.65217391 L21,10.3478261 C21,10.708 21.4476,11 22,11 Z" id="Shape"></path>
            <path d="M26,11 C26.5524,11 27,10.708 27,10.3478261 L27,9.65217391 C27,9.292 26.5524,9 26,9 C25.4476,9 25,9.292 25,9.65217391 L25,10.3478261 C25,10.708 25.4476,11 26,11 Z" id="Shape"></path>
        </g>
        <g id="bulb" transform="translate(92.000000, 0.000000)" fill="#000000" fill-rule="nonzero">
            <path d="M7.8855437,33.4731711 C7.65001452,33.0205796 7.12812735,32.8657619 6.72004769,33.1268391 L3.42620615,35.2348558 C2.6721338,35.7173483 2.98334888,37 3.85356955,37 C3.99825335,37 4.14505502,36.9591024 4.27937242,36.8731063 L7.57321395,34.7650897 C7.98129361,34.5038889 8.12118434,33.9255156 7.8855437,33.4731711 Z" id="Shape"></path>
            <path d="M45.5738294,36.2350324 L42.2799623,34.1269315 C41.8716565,33.8655966 41.3497653,34.0207912 41.1144572,34.4731538 C40.8788147,34.9255163 41.0187065,35.5040362 41.4267894,35.7651239 C44.8138434,37.8826156 44.7420583,38 45.1464627,38 C46.0172475,38.0002471 46.3274618,36.7174206 45.5738294,36.2350324 Z" id="Shape"></path>
            <path d="M34.7045091,35.4207715 C34.3361321,35.0893818 33.7665654,35.1165794 33.4324259,35.4822869 C31.8962076,37.1625807 31.0121497,39.3353482 30.9172024,41.6394342 L28.1031358,41.6394342 L28.1031358,25.9828783 L30.0347916,25.9828783 C31.9752716,25.9828783 33.5540809,24.4166274 33.5540809,22.4914392 C33.5540809,20.5662509 31.9753893,19 30.0347916,19 L29.8210129,19 C27.8805329,19 26.3018413,20.5662509 26.3018413,22.4914392 L26.3018413,24.1958955 L22.9726822,24.1958955 L22.9726822,22.4914392 C22.9726822,20.5662509 21.3939906,19 19.4535106,19 L19.2397319,19 C17.2992519,19 15.7205603,20.5662509 15.7205603,22.4914392 C15.7205603,24.4166274 17.2992519,25.9828783 19.2397319,25.9828783 L21.1715054,25.9828783 L21.1715054,33.244152 C21.1715054,33.7375595 21.5747083,34.1377017 22.0721526,34.1377017 C22.5694793,34.1377017 22.9727999,33.7376762 22.9727999,33.244152 L22.9727999,25.9828783 L26.301959,25.9828783 L26.301959,41.6394342 L22.9727999,41.6394342 L22.9727999,36.8182343 C22.9727999,36.3248267 22.569597,35.9246845 22.0721526,35.9246845 C21.574826,35.9246845 21.1715054,36.32471 21.1715054,36.8182343 L21.1715054,41.6394342 L18.359439,41.6394342 C18.2840223,39.0701431 17.1423005,36.6048562 15.1949965,34.8395848 C13.7081933,33.4918479 12.5101148,31.811204 11.7305344,29.9792811 C11.5371099,29.5247438 11.0086047,29.3115992 10.5505748,29.5037328 C10.0923095,29.695633 9.87758952,30.2197399 10.0712493,30.6743939 C10.9510716,32.7419898 12.3028071,34.6384631 13.9800934,36.1589568 C15.6231422,37.6482842 16.5655568,39.7444784 16.5655568,41.9098921 L16.5655568,51.4992976 C16.5655568,52.9928272 17.617861,54.2464816 19.0251296,54.5711011 C19.0452486,55.3543433 19.2246721,56.1085203 19.5630472,56.814372 C19.7770612,57.2607384 20.3147435,57.4491367 20.7631258,57.2375096 C21.2123316,57.0255323 21.4032853,56.4925541 21.1896243,56.0468881 C20.9789046,55.607292 20.8584261,55.1395645 20.829483,54.6536275 L28.4442169,54.6536275 C28.2902068,57.1935033 25.6805065,58.8701785 23.2790552,57.9621545 C22.8143189,57.7868297 22.2939319,58.0179503 22.1167438,58.4789076 C21.9396734,58.9400983 22.1729828,59.4562678 22.6376014,59.6320595 C26.2468966,60.9966051 30.1484461,58.4004666 30.2492763,54.5709844 C31.6565449,54.2463649 32.7086138,52.9928272 32.7086138,51.4992976 L32.7086138,42.0535837 C32.7086138,40.0414334 33.4392498,38.1342212 34.7660426,36.6830637 C35.1006527,36.3173561 35.0730039,35.7523946 34.7045091,35.4207715 Z M28.1031358,22.4913224 C28.1031358,21.5514318 28.8737744,20.7868661 29.8211306,20.7868661 L30.0349093,20.7868661 C30.9823831,20.7868661 31.7530218,21.5514318 31.7530218,22.4913224 C31.7530218,23.431213 30.9823831,24.1957788 30.0349093,24.1957788 L28.1031358,24.1957788 L28.1031358,22.4913224 Z M21.1715054,24.1958955 L19.2397319,24.1958955 C18.2923758,24.1958955 17.5217371,23.4313298 17.5217371,22.4914392 C17.5217371,21.5515485 18.2923758,20.7869828 19.2397319,20.7869828 L19.4535106,20.7869828 C20.4008668,20.7869828 21.1715054,21.5515485 21.1715054,22.4914392 L21.1715054,24.1958955 Z M30.90779,51.4991809 C30.90779,52.2530077 30.2896319,52.866528 29.5295821,52.866528 L19.7449415,52.866528 C18.9850093,52.866528 18.3667336,52.2532412 18.3667336,51.4991809 L18.3667336,49.0586403 L30.90779,49.0586403 L30.90779,51.4991809 Z M30.90779,47.2715408 L18.3668512,47.2715408 L18.3668512,43.426417 L30.90779,43.426417 L30.90779,47.2715408 Z" id="Shape"></path>
            <path d="M39.9982692,24.7907527 C39.9434597,20.618667 38.3298692,16.6830723 35.4546226,13.7090562 C25.7254241,3.64627309 9,10.7790245 9,25.0119861 C9,25.8524585 9.06369436,26.6968645 9.18935226,27.5211259 C9.26527779,28.0189011 9.71748468,28.3587376 10.1993464,28.280543 C10.6812081,28.20211 11.0102956,27.7350882 10.9344855,27.2371938 C10.8230203,26.5063845 10.7665954,25.7576953 10.7667108,25.0119861 C10.7667108,17.0749987 17.0887225,10.7032139 24.7070067,10.8267042 C32.0652056,10.9383937 38.1325551,17.2137464 38.2321353,24.8156653 C38.232943,24.8811055 38.2334046,24.9465458 38.2334046,25.0117477 C38.2334046,28.1170019 37.2800661,31.0655094 35.4766618,33.5385319 C35.1832292,33.9409479 35.261001,34.5131033 35.6506674,34.8163456 C36.0384876,35.1181576 36.5928132,35.0409166 36.8876304,34.6365935 C38.9236576,31.8447135 40,28.5164379 40,25.0118669 C39.9997692,24.9380827 39.9993077,24.8642985 39.9982692,24.7907527 Z" id="Shape"></path>
            <path d="M25,0 C24.4478119,0 24,0.415973782 24,0.929174 L24,5.070826 C24,5.58390484 24.4476813,6 25,6 C25.5523187,6 26,5.58402622 26,5.070826 L26,0.929174 C25.9998694,0.415973782 25.5523187,0 25,0 Z" id="Shape"></path>
            <path d="M15.8719888,6.72026415 L13.7645009,3.42674436 C13.5033656,3.01870456 12.9250139,2.87882749 12.4729064,3.11444512 C12.0206754,3.35006275 11.865773,3.87178749 12.1267848,4.27982728 L14.2342727,7.57334708 C14.4094334,7.8470826 14.7272675,8 15.0539954,8 C15.7734145,8.00011146 16.2381217,7.29225548 15.8719888,6.72026415 Z" id="Shape"></path>
            <path d="M7.57330875,14.2349765 L4.27981656,12.1269537 C3.87166873,11.8656286 3.34994836,12.0206939 3.11444416,12.4731632 C2.87882851,12.925509 3.0187044,13.5040075 3.42674078,13.7650855 L6.72023297,15.8731083 C7.12648607,16.1333214 7.64898662,15.9813451 7.88560537,15.5268988 C8.12110957,15.0746766 7.98134513,14.4963017 7.57330875,14.2349765 Z" id="Shape"></path>
            <path d="M5.070826,24 L0.929174,24 C0.416095163,24 0,24.4476813 0,25 C0,25.5521881 0.415973782,26 0.929174,26 L5.070826,26 C5.58402622,26 6,25.5523187 6,25 C6,24.4476813 5.58402622,24 5.070826,24 Z" id="Shape"></path>
            <path d="M48.070826,24 L43.929174,24 C43.4159738,24 43,24.4476813 43,25 C43,25.5521881 43.4158524,26 43.929174,26 L48.070826,26 C48.5840262,26 49,25.5523187 49,25 C48.9998786,24.4476813 48.5840262,24 48.070826,24 Z" id="Shape"></path>
            <path d="M45.8855321,12.4731278 C45.6499176,12.0206398 45.1279768,11.8656917 44.7201654,12.126904 L41.4266892,14.2350136 C41.0186548,14.496226 40.878891,15.0746247 41.1143941,15.5269892 C41.3512346,15.9814541 41.8737326,16.1331896 42.2797608,15.8732129 L45.573237,13.7651033 C45.9813828,13.5040145 46.1211466,12.9254922 45.8855321,12.4731278 Z" id="Shape"></path>
            <path d="M37.5270952,3.11449352 C37.0746187,2.87876677 36.4963926,3.01875391 36.2355052,3.42678966 L34.1279011,6.72016537 C33.7622635,7.29159376 34.2257338,8 34.9460151,8 C35.272742,8 35.5905749,7.84686121 35.765735,7.57335131 L37.8732157,4.27986414 C38.1342265,3.87182838 37.9793247,3.35010881 37.5270952,3.11449352 Z" id="Shape"></path>
        </g>
    </g>
</svg>