<?xml version="1.0" encoding="UTF-8"?>
<svg width="66px" height="66px" viewBox="0 0 66 66" version="1.1" xmlns="http://www.w3.org/2000/svg" xmlns:xlink="http://www.w3.org/1999/xlink">
    <!-- Generator: Sketch 50.2 (55047) - http://www.bohemiancoding.com/sketch -->
    <title>btn-icon/edit</title>
    <desc>Created with Sketch.</desc>
    <defs></defs>
    <g id="btn-icon/edit" stroke="none" stroke-width="1" fill="none" fill-rule="evenodd">
        <rect id="bounding-area" fill="#FF0094" x="3" y="3" width="60" height="60" rx="30"></rect>
        <path d="M18,41 L48,41 C48.5522847,41 49,41.4477153 49,42 L49,50 C49,50.5522847 48.5522847,51 48,51 L18,51 C17.4477153,51 17,50.5522847 17,50 L17,42 C17,41.4477153 17.4477153,41 18,41 Z M44,48 C45.1045695,48 46,47.1045695 46,46 C46,44.8954305 45.1045695,44 44,44 C42.8954305,44 42,44.8954305 42,46 C42,47.1045695 42.8954305,48 44,48 Z M28,43 C27.4477153,43 27,43.4477153 27,44 L27,48 C27,48.5522847 27.4477153,49 28,49 C28.5522847,49 29,48.5522847 29,48 L29,44 C29,43.4477153 28.5522847,43 28,43 Z M24,43 C23.4477153,43 23,43.4477153 23,44 L23,48 C23,48.5522847 23.4477153,49 24,49 C24.5522847,49 25,48.5522847 25,48 L25,44 C25,43.4477153 24.5522847,43 24,43 Z M20,43 C19.4477153,43 19,43.4477153 19,44 L19,48 C19,48.5522847 19.4477153,49 20,49 C20.5522847,49 21,48.5522847 21,48 L21,44 C21,43.4477153 20.5522847,43 20,43 Z" id="computer" fill="#FFFFFF"></path>
        <path d="M36,35 L36,37 L45,37 C45.5522847,37 46,37.4477153 46,38 C46,38.5522847 45.5522847,39 45,39 L21,39 C20.4477153,39 20,38.5522847 20,38 C20,37.4477153 20.4477153,37 21,37 L30,37 L30,35 L19,35 C18.4477153,35 18,34.5522847 18,34 L18,16 C18,15.4477153 18.4477153,15 19,15 L47,15 C47.5522847,15 48,15.4477153 48,16 L48,34 C48,34.5522847 47.5522847,35 47,35 L36,35 Z M21,17 C20.4477153,17 20,17.4477153 20,18 L20,32 C20,32.5522847 20.4477153,33 21,33 L45,33 C45.5522847,33 46,32.5522847 46,32 L46,18 C46,17.4477153 45.5522847,17 45,17 L21,17 Z" id="monitor" fill="#FFFFFF"></path>
    </g>
</svg>