<?xml version="1.0" encoding="UTF-8"?>
<svg width="66px" height="66px" viewBox="0 0 66 66" version="1.1" xmlns="http://www.w3.org/2000/svg" xmlns:xlink="http://www.w3.org/1999/xlink">
    <!-- Generator: Sketch 50.2 (55047) - http://www.bohemiancoding.com/sketch -->
    <title>btn-icon/internet</title>
    <desc>Created with Sketch.</desc>
    <defs></defs>
    <g id="btn-icon/internet" stroke="none" stroke-width="1" fill="none" fill-rule="evenodd">
        <rect id="bounding-area" fill="#FFC400" x="3" y="3" width="60" height="60" rx="30"></rect>
        <g id="wave-2" transform="translate(18.000000, 20.000000)" fill="#FFFFFF">
            <path d="M7.36786201,0.0840741631 L8.8942896,2.66725933 C5.36585787,4.75674116 3,8.60208272 3,13 C3,17.3979173 5.36585787,21.2432588 8.8942896,23.3327407 L7.36786201,25.9159258 C2.95732234,23.3040735 0,18.4973966 0,13 C0,7.50260341 2.95732234,2.69592645 7.36786201,0.0840741631 Z M22.632138,0.0840741631 C27.0426777,2.69592645 30,7.50260341 30,13 C30,18.4973966 27.0426777,23.3040735 22.632138,25.9159258 L21.1057104,23.3327407 C24.6341421,21.2432588 27,17.3979173 27,13 C27,8.60208272 24.6341421,4.75674116 21.1057104,2.66725933 L22.632138,0.0840741631 Z" id="Combined-Shape"></path>
        </g>
        <g id="wave-1" transform="translate(12.000000, 14.000000)" fill="#FFFFFF">
            <path d="M10.3150068,0.917703828 L11.8414344,3.500889 C6.54878681,6.63511174 3,12.4031241 3,19 C3,25.5968759 6.54878681,31.3648883 11.8414344,34.499111 L10.3150068,37.0822962 C4.14025128,33.425703 0,26.6963552 0,19 C0,11.3036448 4.14025128,4.57429704 10.3150068,0.917703828 Z M31.6849932,0.917703828 C37.8597487,4.57429704 42,11.3036448 42,19 C42,26.6963552 37.8597487,33.425703 31.6849932,37.0822962 L30.1585656,34.499111 C35.4512132,31.3648883 39,25.5968759 39,19 C39,12.4031241 35.4512132,6.63511174 30.1585656,3.500889 L31.6849932,0.917703828 Z" id="Combined-Shape"></path>
        </g>
        <path d="M33.326087,31.625 L38,31.625 L31.75,46 L32.673913,35.375 L28,35.375 L34.25,21 L33.326087,31.625 Z" id="bolt" fill="#FFFFFF"></path>
    </g>
</svg>