<?xml version="1.0" encoding="utf-8"?>
<!-- Generator: Adobe Illustrator 16.0.0, SVG Export Plug-In . SVG Version: 6.00 Build 0)  -->
<!DOCTYPE svg PUBLIC "-//W3C//DTD SVG 1.1//EN" "http://www.w3.org/Graphics/SVG/1.1/DTD/svg11.dtd">
<svg version="1.1" id="Layer_1" xmlns="http://www.w3.org/2000/svg" xmlns:xlink="http://www.w3.org/1999/xlink" x="0px" y="0px"
	 width="400px" height="400px" viewBox="0 0 400 400" enable-background="new 0 0 400 400" xml:space="preserve">
<g id="XMLID_3_">
	<g>
		<path fill="#FBB03B" d="M199,59.808c38.68,0.038,73.697,15.591,98.987,40.695L199,198.443V59.808z"/>
	</g>
	<g>
	</g>
</g>
<g id="XMLID_1_">
	<g>
		<path fill="#FBB03B" d="M298.004,100.739c24.969,25.045,40.409,59.581,40.409,97.713H200.252L298.004,100.739z"/>
	</g>
	<g>
	</g>
</g>
<g id="XMLID_4_">
	<g>
		<path fill="#FBB03B" d="M338.416,198.444c0,38.133-15.44,72.4-40.429,97.427c-0.076,0.057-0.115,0.096-0.134,0.134l-97.599-97.561
			H338.416z"/>
	</g>
	<g>
	</g>
</g>
<g id="XMLID_5_">
	<g>
		<path fill="#FBB03B" d="M297.854,296.009c-24.969,24.987-59.485,40.198-97.599,40.198h-0.153
			c-38.094,0-72.553-15.096-97.58-40.026l0.077-0.058c0.076-0.019,0.172-0.038,0.134-0.076c-0.019-0.02-0.019-0.02-0.038-0.038
			l97.56-97.561L297.854,296.009z"/>
	</g>
	<g>
	</g>
</g>
<g id="XMLID_6_">
	<g>
		<path fill="#FBB03B" d="M200.254,197.843l-97.56,98.161c-25.045-25.181-40.199-59.563-40.199-98.026v-0.135
			c0-38.406,15.173-73.058,40.237-98.123L200.254,197.843z"/>
	</g>
	<g>
	</g>
</g>
<g id="XMLID_2_">
	<g>
		<path fill="#FBB03B" d="M102.921,99.531c24.982-24.585,59.09-39.765,97.157-39.765h0.153v136.793l-97.501-96.838
			C102.768,99.664,102.844,99.588,102.921,99.531z"/>
	</g>
	<g>
	</g>
</g>
<polyline fill="none" points="199,341 199,340.617 199,203 "/>
<line fill="none" x1="200.284" y1="59.741" x2="200.284" y2="59.741"/>
<line fill="none" x1="339" y1="198.457" x2="339" y2="198.457"/>
<polyline fill="#FBB03B" points="199,199 61.798,199 62,199 "/>
<line fill="none" x1="297.998" y1="296.172" x2="297.845" y2="296.019"/>
<line fill="none" x1="123.807" y1="154.507" x2="123.463" y2="154.163"/>
<line fill="none" x1="298.074" y1="100.668" x2="297.998" y2="100.743"/>
<line fill="none" x1="102.551" y1="296.19" x2="102.379" y2="296.362"/>
<line fill="none" x1="102.723" y1="296.019" x2="102.628" y2="296.132"/>
<g id="XMLID_7_">
	<g>
		<path fill="#FEEFD8" d="M200.291,198.093l-91.518,90.906c-23.512-23.319-37.727-55.16-37.727-90.781v-0.125
			c0-35.567,14.233-67.657,37.763-90.87L200.291,198.093z"/>
	</g>
	<g>
	</g>
</g>
<g id="XMLID_8_">
	<g>
		<path fill="#FEEFD8" d="M293.987,289.105c-23.89,23.928-56.509,38.376-93,38.376h-0.128c-36.437,0-69.312-14.484-93.091-38.412
			l93.091-93.1L293.987,289.105z"/>
	</g>
	<g>
	</g>
</g>
<circle fill="#C1272D" cx="109.315" cy="207.854" r="13.789"/>
<circle fill="#C1272D" cx="138.015" cy="173.414" r="13.789"/>
<circle fill="#C1272D" cx="109.315" cy="248.033" r="13.789"/>
<circle fill="#C1272D" cx="143.755" cy="226.987" r="13.79"/>
<circle fill="#C1272D" cx="170.542" cy="198.287" r="13.79"/>
<circle fill="#C1272D" cx="258.554" cy="286.3" r="13.79"/>
<circle fill="#C1272D" cx="222.201" cy="261.427" r="13.789"/>
<circle fill="#C1272D" cx="180.108" cy="263.34" r="13.789"/>
<circle fill="#C1272D" cx="180.108" cy="299.693" r="13.789"/>
<circle fill="#C1272D" cx="138.015" cy="280.561" r="13.789"/>
<circle fill="#C1272D" cx="109.315" cy="138.974" r="13.789"/>
<circle fill="#C1272D" cx="95.922" cy="173.414" r="13.789"/>
<circle fill="#C1272D" cx="222.201" cy="299.693" r="13.789"/>
<g id="XMLID_9_">
	<g>
		<path fill="#FEEFD8" d="M199.646,197.73h129.759c0,36.744-14.518,69.765-37.982,93.881c-0.072,0.055-0.09,0.092-0.162,0.129
			L199.646,197.73z"/>
	</g>
	<g>
	</g>
</g>
<g id="XMLID_10_">
	<g>
		<path fill="#FEEFD8" d="M200.226,71.596c35.574,0,67.524,14.5,90.89,37.982c0.036,0.054,0.089,0.09,0.125,0.144l-91.015,91.614
			V71.596z"/>
	</g>
	<g>
	</g>
</g>
<g id="XMLID_11_">
	<g>
		<path fill="#FEEFD8" d="M290.211,108.668c25.735,25.736,38.695,59.004,39.153,92.352c-0.012,0.063,0.002,0.128-0.011,0.191
			l-130-1.686L290.211,108.668z"/>
	</g>
	<g>
	</g>
</g>
<g id="XMLID_12_">
	<g>
		<path fill="#FEEFD8" d="M200.313,71.71l3.171,130.962l-94.978-94.978c24.975-24.974,58.019-36.79,91.6-36.015
			C200.185,71.708,200.235,71.683,200.313,71.71z"/>
	</g>
	<g>
	</g>
</g>
<circle fill="#C1272D" cx="182.021" cy="154.281" r="13.789"/>
<circle fill="#C1272D" cx="182.021" cy="114.101" r="13.789"/>
<circle fill="#C1272D" cx="143.755" cy="114.101" r="13.79"/>
<circle fill="#C1272D" cx="216.461" cy="93.054" r="13.79"/>
<circle fill="#C1272D" cx="304.474" cy="217.421" r="13.79"/>
<circle fill="#C1272D" cx="254.728" cy="119.841" r="13.79"/>
<circle fill="#C1272D" cx="222.201" cy="137.061" r="13.789"/>
<circle fill="#C1272D" cx="289.167" cy="133.234" r="13.79"/>
<circle fill="#C1272D" cx="308.301" cy="177.241" r="13.789"/>
<circle fill="#C1272D" cx="275.774" cy="165.761" r="13.789"/>
<circle fill="#C1272D" cx="241.334" cy="179.154" r="13.79"/>
<circle fill="#C1272D" cx="208.808" cy="173.414" r="13.79"/>
<circle fill="#C1272D" cx="248.988" cy="215.507" r="13.79"/>
<circle fill="#C1272D" cx="277.688" cy="244.207" r="13.789"/>
<circle fill="#C1272D" cx="203.068" cy="221.247" r="13.79"/>
</svg>
