<?xml version="1.0" encoding="utf-8"?>
<!-- Generator: Adobe Illustrator 16.0.0, SVG Export Plug-In . SVG Version: 6.00 Build 0)  -->
<!DOCTYPE svg PUBLIC "-//W3C//DTD SVG 1.1//EN" "http://www.w3.org/Graphics/SVG/1.1/DTD/svg11.dtd">
<svg version="1.1" id="Layer_1" xmlns="http://www.w3.org/2000/svg" xmlns:xlink="http://www.w3.org/1999/xlink" x="0px" y="0px"
	 width="400px" height="400px" viewBox="0 0 400 400" enable-background="new 0 0 400 400" xml:space="preserve">
<g id="XMLID_3_">
	<g>
		<path fill="#FBB03B" d="M277.49,217.21c19.96,0.021,38.021,8.13,51.08,21.22l-51.08,51.07V217.21z"/>
	</g>
	<g>
	</g>
</g>
<g id="XMLID_1_">
	<g>
		<path fill="#FBB03B" d="M354.57,227.43c13.061,13.091,21.13,31.141,21.13,51.07h-72.21L354.57,227.43z"/>
	</g>
	<g>
	</g>
</g>
<g id="XMLID_4_">
	<g>
		<path fill="#FBB03B" d="M349.7,289.5c0,19.93-8.069,37.84-21.13,50.92c-0.04,0.03-0.06,0.05-0.08,0.07l-51-50.99H349.7z"/>
	</g>
	<g>
	</g>
</g>
<g id="XMLID_5_">
	<g>
		<path fill="#FBB03B" d="M277.49,306.5l51,50.99c-13.04,13.06-31.08,21.01-51,21.01h-0.08c-19.909,0-37.92-7.89-51-20.92l0.04-0.03
			c0.04-0.01,0.091-0.02,0.07-0.04c-0.01-0.01-0.01-0.01-0.02-0.02L277.49,306.5z"/>
	</g>
	<g>
	</g>
</g>
<g id="XMLID_6_">
	<g>
		<path fill="#FBB03B" d="M205.49,291.5c0-19.95,7.931-37.95,21.03-50.97l50.97,50.97l-50.989,50.99
			c-13.091-13.08-21.011-30.94-21.011-50.92V291.5z"/>
	</g>
	<g>
	</g>
</g>
<g id="XMLID_2_">
	<g>
		<path fill="#FBB03B" d="M266.49,189.5v72l-50.97-50.97c0.021-0.03,0.061-0.07,0.1-0.101c13.061-12.939,30.891-20.93,50.79-20.93
			H266.49z"/>
	</g>
	<g>
	</g>
</g>
<polyline fill="none" points="277,379 277,378.8 277,307 "/>
<line fill="none" x1="277.5" y1="217" x2="277.5" y2="217"/>
<line fill="none" x1="350" y1="289.5" x2="350" y2="289.5"/>
<polyline fill="#FBB03B" points="277,290 205.12,290 205,290 "/>
<line fill="none" x1="328.57" y1="340.57" x2="328.49" y2="340.49"/>
<line fill="none" x1="226.529" y1="238.529" x2="226.35" y2="238.35"/>
<line fill="none" x1="328.61" y1="238.391" x2="328.57" y2="238.43"/>
<line fill="none" x1="226.42" y1="340.58" x2="226.33" y2="340.67"/>
<line fill="none" x1="226.51" y1="340.49" x2="226.46" y2="340.55"/>
<g id="XMLID_7_">
	<g>
		<path fill="#FEEFD8" d="M230.726,244.207l46.776,47.295l-46.795,47.313c-12.022-12.137-19.282-28.709-19.282-47.249v-0.064
			C211.425,272.99,218.703,256.288,230.726,244.207z"/>
	</g>
	<g>
	</g>
</g>
<g id="XMLID_8_">
	<g>
		<path fill="#FEEFD8" d="M277.488,306.451l47.313,46.796c-12.137,12.021-28.709,19.281-47.248,19.281h-0.065
			c-18.511,0-35.213-7.277-47.295-19.3L277.488,306.451z"/>
	</g>
	<g>
	</g>
</g>
<circle fill="#C1272D" cx="229.955" cy="296.411" r="7.207"/>
<circle fill="#C1272D" cx="244.955" cy="278.411" r="7.207"/>
<circle fill="#C1272D" cx="229.955" cy="317.411" r="7.207"/>
<circle fill="#C1272D" cx="277.955" cy="322.411" r="7.207"/>
<circle fill="#C1272D" cx="247.955" cy="306.411" r="7.207"/>
<circle fill="#C1272D" cx="261.955" cy="291.411" r="7.207"/>
<circle fill="#C1272D" cx="307.955" cy="352.411" r="7.207"/>
<circle fill="#C1272D" cx="288.955" cy="339.411" r="7.207"/>
<circle fill="#C1272D" cx="266.955" cy="340.411" r="7.207"/>
<circle fill="#C1272D" cx="266.955" cy="359.411" r="7.207"/>
<circle fill="#C1272D" cx="244.955" cy="354.411" r="7.207"/>
<circle fill="#C1272D" cx="229.955" cy="260.411" r="7.207"/>
<circle fill="#C1272D" cx="222.955" cy="278.411" r="7.207"/>
<circle fill="#C1272D" cx="288.955" cy="359.411" r="7.207"/>
<g id="XMLID_9_">
	<g>
		<path fill="#FEEFD8" d="M344.983,289.125c0,19.204-7.578,36.463-19.852,49.066c-0.028,0.029-0.047,0.049-0.075,0.067
			l-47.882-49.134H344.983z"/>
	</g>
	<g>
	</g>
</g>
<g id="XMLID_10_">
	<g>
		<path fill="#FEEFD8" d="M277.468,222.189c18.405,0,34.938,7.578,47.026,19.852c0.019,0.028,0.046,0.047,0.064,0.075
			l-47.091,47.883V222.189z"/>
	</g>
	<g>
	</g>
</g>
<g id="XMLID_11_">
	<g>
		<path fill="#FEEFD8" d="M350.982,231.12c13.015,13.016,19.346,30.063,19.215,47.29c-0.007,0.033,0,0.066-0.007,0.099l-67.156,0.56
			L350.982,231.12z"/>
	</g>
	<g>
	</g>
</g>
<g id="XMLID_12_">
	<g>
		<path fill="#FEEFD8" d="M266.519,195.258l1.657,68.447l-49.64-49.64c13.053-13.053,30.323-19.229,47.881-18.817
			C266.451,195.256,266.484,195.25,266.519,195.258z"/>
	</g>
	<g>
	</g>
</g>
<circle fill="#C1272D" cx="256.955" cy="238.411" r="7.207"/>
<circle fill="#C1272D" cx="256.955" cy="217.411" r="7.207"/>
<circle fill="#C1272D" cx="236.955" cy="217.411" r="7.207"/>
<circle fill="#C1272D" cx="288.955" cy="232.411" r="7.207"/>
<circle fill="#C1272D" cx="331.955" cy="299.411" r="7.207"/>
<circle fill="#C1272D" cx="307.955" cy="244.411" r="7.207"/>
<circle fill="#C1272D" cx="288.955" cy="251.411" r="7.207"/>
<circle fill="#C1272D" cx="349.955" cy="244.411" r="7.207"/>
<circle fill="#C1272D" cx="359.955" cy="267.411" r="7.207"/>
<circle fill="#C1272D" cx="342.955" cy="261.411" r="7.207"/>
<circle fill="#C1272D" cx="324.955" cy="268.411" r="7.207"/>
<circle fill="#C1272D" cx="284.955" cy="271.411" r="7.207"/>
<circle fill="#C1272D" cx="302.955" cy="298.411" r="7.207"/>
<circle fill="#C1272D" cx="317.955" cy="313.411" r="7.207"/>
<g id="XMLID_24_">
	<g>
		<path fill="#FBB03B" d="M70.538,65.025l51.07,51.08h-72.29C49.338,96.145,57.448,78.085,70.538,65.025z"/>
	</g>
	<g>
	</g>
</g>
<g id="XMLID_23_">
	<g>
		<path fill="#FBB03B" d="M110.608,17.895v72.21l-51.07-51.08C72.628,25.965,90.678,17.895,110.608,17.895z"/>
	</g>
	<g>
	</g>
</g>
<g id="XMLID_22_">
	<g>
		<path fill="#FBB03B" d="M121.608,116.105v-72.21c19.93,0,37.84,8.07,50.92,21.13c0.03,0.04,0.05,0.06,0.07,0.08L121.608,116.105z"
			/>
	</g>
	<g>
	</g>
</g>
<g id="XMLID_21_">
	<g>
		<path fill="#FBB03B" d="M138.608,116.105l50.99-51c13.06,13.04,21.01,31.08,21.01,51v0.08c0,19.91-7.891,37.92-20.92,51
			l-0.03-0.04c-0.01-0.04-0.02-0.09-0.04-0.07c-0.01,0.01-0.01,0.01-0.02,0.02L138.608,116.105z"/>
	</g>
	<g>
	</g>
</g>
<g id="XMLID_20_">
	<g>
		<path fill="#FBB03B" d="M123.608,116.105l50.99,50.99c-13.08,13.09-30.94,21.01-50.92,21.01h-0.07
			c-19.95,0-37.95-7.93-50.97-21.03L123.608,116.105z"/>
	</g>
	<g>
	</g>
</g>
<g id="XMLID_19_">
	<g>
		<path fill="#FBB03B" d="M21.608,127.105h72l-50.97,50.97c-0.03-0.02-0.07-0.06-0.1-0.1c-12.94-13.06-20.93-30.89-20.93-50.79
			V127.105z"/>
	</g>
	<g>
	</g>
</g>
<polyline fill="none" points="211,117 210.902,117 139,117 "/>
<line fill="none" x1="49.103" y1="116.102" x2="49.103" y2="116.102"/>
<line fill="none" x1="121.603" y1="43.602" x2="121.603" y2="43.602"/>
<polyline fill="#FBB03B" points="122,117 122,188.481 122,189 "/>
<line fill="none" x1="172.673" y1="65.031" x2="172.593" y2="65.111"/>
<line fill="none" x1="70.632" y1="167.072" x2="70.453" y2="167.252"/>
<line fill="none" x1="70.494" y1="64.991" x2="70.533" y2="65.031"/>
<line fill="none" x1="172.683" y1="167.182" x2="172.773" y2="167.271"/>
<line fill="none" x1="172.593" y1="167.092" x2="172.653" y2="167.142"/>
<g id="XMLID_18_">
	<g>
		<path fill="#FEEFD8" d="M123.607,116.094l47.313,46.795c-12.137,12.022-28.709,19.281-47.248,19.281h-0.065
			c-18.512,0-35.214-7.277-47.295-19.3L123.607,116.094z"/>
	</g>
	<g>
	</g>
</g>
<g id="XMLID_17_">
	<g>
		<path fill="#FEEFD8" d="M138.563,116.114l46.795-47.323C197.38,80.929,204.64,97.5,204.64,116.049v0.065
			c0,18.502-7.278,35.205-19.3,47.286L138.563,116.114z"/>
	</g>
	<g>
	</g>
</g>
<circle fill="#C1272D" cx="128.514" cy="163.646" r="7.207"/>
<circle fill="#C1272D" cx="110.514" cy="148.646" r="7.207"/>
<circle fill="#C1272D" cx="149.514" cy="163.646" r="7.207"/>
<circle fill="#C1272D" cx="154.514" cy="115.646" r="7.207"/>
<circle fill="#C1272D" cx="138.514" cy="145.646" r="7.207"/>
<circle fill="#C1272D" cx="123.514" cy="131.646" r="7.207"/>
<circle fill="#C1272D" cx="184.514" cy="85.646" r="7.207"/>
<circle fill="#C1272D" cx="171.514" cy="104.646" r="7.207"/>
<circle fill="#C1272D" cx="172.514" cy="126.646" r="7.207"/>
<circle fill="#C1272D" cx="191.514" cy="126.646" r="7.207"/>
<circle fill="#C1272D" cx="186.514" cy="148.646" r="7.207"/>
<circle fill="#C1272D" cx="92.514" cy="163.646" r="7.207"/>
<circle fill="#C1272D" cx="110.514" cy="170.646" r="7.207"/>
<circle fill="#C1272D" cx="191.514" cy="104.646" r="7.207"/>
<g id="XMLID_16_">
	<g>
		<path fill="#FEEFD8" d="M121.234,116.423V48.614c19.205,0,36.463,7.579,49.067,19.852c0.029,0.028,0.048,0.047,0.067,0.075
			L121.234,116.423z"/>
	</g>
	<g>
	</g>
</g>
<g id="XMLID_15_">
	<g>
		<path fill="#FEEFD8" d="M122.107,116.13H54.299c0-18.406,7.578-34.938,19.852-47.026c0.028-0.019,0.047-0.046,0.075-0.065
			L122.107,116.13z"/>
	</g>
	<g>
	</g>
</g>
<g id="XMLID_14_">
	<g>
		<path fill="#FEEFD8" d="M111.174,90.573L63.226,42.625c13.015-13.015,30.063-19.346,47.29-19.216
			c0.033,0.007,0.066,0.001,0.099,0.008L111.174,90.573z"/>
	</g>
	<g>
	</g>
</g>
<g id="XMLID_13_">
	<g>
		<path fill="#FEEFD8" d="M95.808,125.436l-49.64,49.64c-13.053-13.053-19.235-30.33-18.817-47.881
			c0.001-0.041,0.001-0.067,0.009-0.101L95.808,125.436z"/>
	</g>
	<g>
	</g>
</g>
<circle fill="#C1272D" cx="70.514" cy="136.646" r="7.207"/>
<circle fill="#C1272D" cx="49.514" cy="136.646" r="7.207"/>
<circle fill="#C1272D" cx="49.514" cy="156.646" r="7.207"/>
<circle fill="#C1272D" cx="64.514" cy="104.646" r="7.207"/>
<circle fill="#C1272D" cx="131.514" cy="61.646" r="7.207"/>
<circle fill="#C1272D" cx="76.514" cy="85.646" r="7.207"/>
<circle fill="#C1272D" cx="83.514" cy="104.646" r="7.207"/>
<circle fill="#C1272D" cx="76.514" cy="43.646" r="7.207"/>
<circle fill="#C1272D" cx="99.514" cy="33.646" r="7.207"/>
<circle fill="#C1272D" cx="93.514" cy="50.646" r="7.207"/>
<circle fill="#C1272D" cx="100.514" cy="68.646" r="7.207"/>
<circle fill="#C1272D" cx="103.514" cy="108.646" r="7.207"/>
<circle fill="#C1272D" cx="130.514" cy="90.646" r="7.207"/>
<circle fill="#C1272D" cx="145.514" cy="75.646" r="7.207"/>
</svg>
